<?xml version="1.0" encoding="utf-8"?>
<svg id="master-artboard" viewBox="0 0 850 800" version="1.1" xmlns="http://www.w3.org/2000/svg" x="0px" y="0px" style="enable-background:new 0 0 1400 980;" width="850px" height="800px"><rect id="ee-background" x="0" y="0" width="850" height="800" style="fill: white; fill-opacity: 0; pointer-events: none;"/><g transform="matrix(8.181742668151854, 0, 0, 8.181742668151854, -1636.9246549694842, -441.6872253417969)"><g transform="matrix(1, 0, 0, 1, 0, 0)">
	<path class="st3" d="M296.7,91.1c0,1.9,1.5,3.4,3.4,3.4l0,0c1.9,0,3.4-1.5,3.4-3.4V78.4c0-1.9-1.5-3.4-3.4-3.4l0,0&#10;&#9;&#9;c-1.9,0-3.4,1.5-3.4,3.4V91.1z" style="fill: rgb(5, 8, 13);"/>
	<path d="M 292.299988 90.199997 H 297.699988 V 91.199997 H 292.299988 V 90.199997 Z" class="st3" style="fill: rgb(5, 8, 13);"/>
	<path d="M 292.299988 78.900002 H 297.699988 V 79.900002 H 292.299988 V 78.900002 Z" class="st3" style="fill: rgb(5, 8, 13);"/>
	<path class="st15" d="M207.3,91.1c0,1.9-1.5,3.4-3.4,3.4l0,0c-1.9,0-3.4-1.5-3.4-3.4V78.4c0-1.9,1.5-3.4,3.4-3.4l0,0&#10;&#9;&#9;c1.9,0,3.4,1.5,3.4,3.4V91.1z" style="fill: rgb(6, 15, 20);"/>
	<path d="M 206.300003 90.199997 H 211.700003 V 91.199997 H 206.300003 V 90.199997 Z" class="st15" style="fill: rgb(6, 15, 20);"/>
	<path d="M 206.300003 78.900002 H 211.700003 V 79.900002 H 206.300003 V 78.900002 Z" class="st15" style="fill: rgb(6, 15, 20);"/>
	<path class="st8" d="M214.1,136.3c-0.4,0.7-0.7,1.6-0.7,2.5v6.2c0,2.6,2.1,4.8,4.8,4.8s4.8-2.1,4.8-4.8v-6.2c0-0.9-0.3-1.8-0.7-2.5&#10;&#9;&#9;H214.1z" style="fill: rgb(42, 42, 42);"/>
	<path class="st8" d="M281.7,136.3c-0.4,0.7-0.7,1.6-0.7,2.5v6.2c0,2.6,2.1,4.8,4.8,4.8c2.6,0,4.8-2.1,4.8-4.8v-6.2&#10;&#9;&#9;c0-0.9-0.3-1.8-0.7-2.5H281.7z" style="fill: rgb(42, 42, 42);"/>
	<path d="M 210.399994 73.300003 H 252.299995 V 131.500004 H 210.399994 V 73.300003 Z" class="st10" style="fill: rgb(251, 190, 14);"/>
	<path d="M 251.600006 73.300003 H 293.500008 V 131.500004 H 251.600006 V 73.300003 Z" class="st10" style="fill: rgb(251, 190, 14);"/>
	<path class="st15" d="M291.2,82.5c0,0-0.1-4.8-3-4.8c-2.6,0-30.9,0-35.8,0c0,0-0.3,0-0.7,0c-4.9,0-33.2,0-35.8,0&#10;&#9;&#9;c-2.9,0-3,4.8-3,4.8l-0.5,16.6h39.3h0.7h39.3L291.2,82.5z" style="fill: rgb(6, 15, 20);"/>
	<path class="st16" d="M239.7,97.8c0.2-0.1-25.4,0-25.4,0l0.2-13c0,0-0.3-5.3,2.6-5.3c2.9,0,40.3,0,40.3,0v18.3H239.7z" style="fill: rgb(46, 51, 57);"/>
	<path class="st16" d="M264.4,97.8c-0.2-0.1,25.4,0,25.4,0l-0.2-13c0,0,0.3-5.3-2.6-5.3c-2.9,0-40.3,0-40.3,0v18.3H264.4z" style="fill: rgb(46, 51, 57);"/>
	<path class="st3" d="M297.4,133c0,2.6-2.1,4.7-4.8,4.7h-80.6c-2.6,0-4.8-2.1-4.8-4.7l0,0c0-2.6,2.1-4.7,4.8-4.7h80.6&#10;&#9;&#9;C295.3,128.3,297.4,130.4,297.4,133L297.4,133z" style="fill: rgb(5, 8, 13);"/>
	<path class="st11" d="M213.4,128.3v-13.1c0,0,0.1-4.4,4.3-4.4c4.2,0,5.2,0,5.2,0h3.3v-4.7c0,0-0.2-3.4,3.4-3.4c3.6,0,22,0,22,0h0.7&#10;&#9;&#9;v25.7H213.4z" style="fill: rgb(186, 143, 13);"/>
	<path class="st10" d="M252.4,73.3V56.2c0,0-41.9-1.2-41.9,17.1H252.4z" style="fill: rgb(251, 190, 14);"/>
	<path class="st15" d="M229.6,58.2c-9.9,2.1-19.2,6.4-19.2,15h19.2V58.2z" style="fill: rgb(6, 15, 20);"/>
	<path d="M 227.2 67.400002 A 2.7 2.7 0 0 1 224.5 70.100002 A 2.7 2.7 0 0 1 221.8 67.400002 A 2.7 2.7 0 0 1 224.5 64.700001 A 2.7 2.7 0 0 1 227.2 67.400002 Z" class="st10" style="fill: rgb(251, 190, 14);"/>
	<path d="M 225.600006 66.199997 A 0.5 0.5 0 0 1 225.100006 66.699997 A 0.5 0.5 0 0 1 224.600006 66.199997 A 0.5 0.5 0 0 1 225.100006 65.699997 A 0.5 0.5 0 0 1 225.600006 66.199997 Z" class="st19" style="fill: rgb(255, 255, 255);"/>
	<path d="M 220.399997 67.400002 A 2.7 2.7 0 0 1 217.699997 70.100002 A 2.7 2.7 0 0 1 214.999997 67.400002 A 2.7 2.7 0 0 1 217.699997 64.700001 A 2.7 2.7 0 0 1 220.399997 67.400002 Z" class="st10" style="fill: rgb(251, 190, 14);"/>
	<path d="M 218.800003 66.199997 A 0.5 0.5 0 0 1 218.300003 66.699997 A 0.5 0.5 0 0 1 217.800003 66.199997 A 0.5 0.5 0 0 1 218.300003 65.699997 A 0.5 0.5 0 0 1 218.800003 66.199997 Z" class="st19" style="fill: rgb(255, 255, 255);"/>
	<path class="st18" d="M250.4,91.3c-0.1,0.2-0.4,0.2-0.6,0.1l-19.5-16.2c-0.2-0.1-0.2-0.4-0.1-0.6l0,0c0.1-0.2,0.4-0.2,0.6-0.1&#10;&#9;&#9;l19.5,16.2C250.5,90.9,250.6,91.2,250.4,91.3L250.4,91.3z" style="fill: rgb(60, 81, 98);"/>
	<path d="M 216.5 115.800003 H 227.1 V 126.000003 H 216.5 V 115.800003 Z" class="st12" style="fill: rgb(255, 236, 84);"/>
	<path d="M 224.500003 121.400002 A 2.7 2.7 0 0 1 221.800003 124.100002 A 2.7 2.7 0 0 1 219.100003 121.400002 A 2.7 2.7 0 0 1 221.800003 118.700001 A 2.7 2.7 0 0 1 224.500003 121.400002 Z" class="st11" style="fill: rgb(186, 143, 13);"/>
	<path d="M 222.899994 120.099998 A 0.5 0.5 0 0 1 222.399994 120.599998 A 0.5 0.5 0 0 1 221.899994 120.099998 A 0.5 0.5 0 0 1 222.399994 119.599998 A 0.5 0.5 0 0 1 222.899994 120.099998 Z" class="st19" style="fill: rgb(255, 255, 255);"/>
	<path class="st20" d="M231.4,128.3v-18c0-1,0.3-1.7,0.8-2.2c0.9-0.8,2.5-0.7,2.5-0.7l17.6,0V106h-17.5c-0.3,0-2.2-0.1-3.6,1&#10;&#9;&#9;c-0.9,0.8-1.3,1.9-1.3,3.3v18H231.4z" style="fill: rgb(35, 31, 32);"/>
	<path class="st11" d="M290.6,128.3v-13.1c0,0-0.1-4.4-4.3-4.4c-4.2,0-5.2,0-5.2,0h-3.3v-4.7c0,0,0.2-3.4-3.4-3.4c-3.6,0-22,0-22,0&#10;&#9;&#9;h-0.7v25.7H290.6z" style="fill: rgb(186, 143, 13);"/>
	<path class="st10" d="M251.6,73.3V56.2c0,0,41.9-1.2,41.9,17.1H251.6z" style="fill: rgb(251, 190, 14);"/>
	<path class="st15" d="M274.4,58.2c9.9,2.1,19.2,6.4,19.2,15h-19.2V58.2z" style="fill: rgb(6, 15, 20);"/>
	<path d="M 282.1 67.400002 A 2.6 2.6 0 0 1 279.5 70.000001 A 2.6 2.6 0 0 1 276.9 67.400002 A 2.6 2.6 0 0 1 279.5 64.800002 A 2.6 2.6 0 0 1 282.1 67.400002 Z" class="st10" style="fill: rgb(251, 190, 14);"/>
	<path d="M 279.399994 66.199997 A 0.5 0.5 0 0 1 278.899994 66.699997 A 0.5 0.5 0 0 1 278.399994 66.199997 A 0.5 0.5 0 0 1 278.899994 65.699997 A 0.5 0.5 0 0 1 279.399994 66.199997 Z" class="st19" style="fill: rgb(255, 255, 255);"/>
	<path d="M 288.999988 67.400002 A 2.7 2.7 0 0 1 286.299988 70.100002 A 2.7 2.7 0 0 1 283.599988 67.400002 A 2.7 2.7 0 0 1 286.299988 64.700001 A 2.7 2.7 0 0 1 288.999988 67.400002 Z" class="st10" style="fill: rgb(251, 190, 14);"/>
	<path d="M 286.200012 66.199997 A 0.5 0.5 0 0 1 285.700012 66.699997 A 0.5 0.5 0 0 1 285.200012 66.199997 A 0.5 0.5 0 0 1 285.700012 65.699997 A 0.5 0.5 0 0 1 286.200012 66.199997 Z" class="st19" style="fill: rgb(255, 255, 255);"/>
	<path class="st18" d="M253.6,91.3c0.1,0.2,0.4,0.2,0.6,0.1l19.5-16.2c0.2-0.1,0.2-0.4,0.1-0.6l0,0c-0.1-0.2-0.4-0.2-0.6-0.1&#10;&#9;&#9;l-19.5,16.2C253.5,90.9,253.4,91.2,253.6,91.3L253.6,91.3z" style="fill: rgb(60, 81, 98);"/>
	<path d="M 276.899994 115.800003 H 287.499994 V 126.000003 H 276.899994 V 115.800003 Z" class="st12" style="fill: rgb(255, 236, 84);"/>
	<path d="M 284.800012 121.400002 A 2.6 2.6 0 0 1 282.200012 124.000001 A 2.6 2.6 0 0 1 279.600012 121.400002 A 2.6 2.6 0 0 1 282.200012 118.800002 A 2.6 2.6 0 0 1 284.800012 121.400002 Z" class="st11" style="fill: rgb(186, 143, 13);"/>
	<path d="M 282.100006 120.099998 A 0.5 0.5 0 0 1 281.600006 120.599998 A 0.5 0.5 0 0 1 281.100006 120.099998 A 0.5 0.5 0 0 1 281.600006 119.599998 A 0.5 0.5 0 0 1 282.100006 120.099998 Z" class="st19" style="fill: rgb(255, 255, 255);"/>
	<path class="st20" d="M272.6,128.3v-18c0-1-0.3-1.7-0.8-2.2c-0.9-0.8-2.5-0.7-2.5-0.7l-17.6,0V106h17.5c0.3,0,2.2-0.1,3.6,1&#10;&#9;&#9;c0.9,0.8,1.3,1.9,1.3,3.3v18H272.6z" style="fill: rgb(35, 31, 32);"/>
	<path d="M 232.899994 109.5 H 271.699993 V 111.1 H 232.899994 V 109.5 Z" class="st20" style="fill: rgb(35, 31, 32);"/>
	<path d="M 232.899994 114.699997 H 271.699993 V 116.299997 H 232.899994 V 114.699997 Z" class="st20" style="fill: rgb(35, 31, 32);"/>
	<path d="M 232.899994 118.800003 H 271.699993 V 120.400003 H 232.899994 V 118.800003 Z" class="st20" style="fill: rgb(35, 31, 32);"/>
	<path d="M 232.899994 124 H 271.699993 V 125.6 H 232.899994 V 124 Z" class="st20" style="fill: rgb(35, 31, 32);"/>
	<path class="st3" d="M271.7,66.7c0,2.3-1.9,4.2-4.2,4.2h-30.4c-2.3,0-4.2-1.9-4.2-4.2l0,0c0-2.3,1.9-4.2,4.2-4.2h30.4&#10;&#9;&#9;C269.8,62.6,271.7,64.4,271.7,66.7L271.7,66.7z" style="fill: rgb(5, 8, 13);"/>
	<path d="M 248.800006 59.200001 A 1.2 1.2 0 0 1 247.600006 60.400001 A 1.2 1.2 0 0 1 246.400006 59.200001 A 1.2 1.2 0 0 1 247.600006 58.000001 A 1.2 1.2 0 0 1 248.800006 59.200001 Z" class="st11" style="fill: rgb(186, 143, 13);"/>
	<path d="M 257.900012 59.200001 A 1.2 1.2 0 0 1 256.700012 60.400001 A 1.2 1.2 0 0 1 255.500012 59.200001 A 1.2 1.2 0 0 1 256.700012 58.000001 A 1.2 1.2 0 0 1 257.900012 59.200001 Z" class="st11" style="fill: rgb(186, 143, 13);"/>
	<path d="M 253.500003 59.200001 A 1.2 1.2 0 0 1 252.300003 60.400001 A 1.2 1.2 0 0 1 251.100003 59.200001 A 1.2 1.2 0 0 1 252.300003 58.000001 A 1.2 1.2 0 0 1 253.500003 59.200001 Z" class="st11" style="fill: rgb(186, 143, 13);"/>
	<path d="M 258.1000061035156 96.80000305175781 L 241.39999389648438 96.80000305175781 L 235.5 100.0999984741211 L 235.5 101.30000305175781 L 258.1000061035156 101.30000305175781 Z" class="st10" style="fill: rgb(251, 190, 14);"/>
	<path d="M 244.3000030517578 96.80000305175781 L 260.8999938964844 96.80000305175781 L 266.8999938964844 100.0999984741211 L 266.8999938964844 101.30000305175781 L 244.3000030517578 101.30000305175781 Z" class="st10" style="fill: rgb(251, 190, 14);"/>
</g></g></svg>