<?xml version="1.0" encoding="utf-8"?>
<svg id="master-artboard" xmlns="http://www.w3.org/2000/svg" viewBox="0 0 258.3333435058594 158.3333282470703" width="258.3333435058594px" height="158.3333282470703px"><defs><style id="ee-google-fonts">@import url(https://fonts.googleapis.com/css?family=Aladin:400);</style><path id="text-path-0" d="M 151.11111450195312 283.1641845703125 A 100 100 0 0 1 365.7335205078125 283.1641845703125 A 100 100 0 0 1 151.11111450195312 283.1641845703125 Z" style="fill: none; stroke: red; stroke-width: 2;"/></defs><rect id="ee-background" x="0" y="0" width="258.3333435058594" height="158.3333282470703" style="fill: rgb(0, 255, 72); fill-opacity: 0; pointer-events: none;"/><g transform="matrix(1.1238316297531128, 0, 0, 1.1238316297531128, -147.8495635986328, -12.575248718261719)"><g transform="matrix(1, 0, 0, 1, 0, 0)">
	<path class="st3" d="M296.7,91.1c0,1.9,1.5,3.4,3.4,3.4l0,0c1.9,0,3.4-1.5,3.4-3.4V78.4c0-1.9-1.5-3.4-3.4-3.4l0,0&#10;&#9;&#9;c-1.9,0-3.4,1.5-3.4,3.4V91.1z" style="fill: rgb(5, 8, 13);"/>
	<path d="M 292.299988 90.199997 H 297.699988 V 91.199997 H 292.299988 V 90.199997 Z" class="st3" style="fill: rgb(5, 8, 13);"/>
	<path d="M 292.299988 78.900002 H 297.699988 V 79.900002 H 292.299988 V 78.900002 Z" class="st3" style="fill: rgb(5, 8, 13);"/>
	<path class="st15" d="M207.3,91.1c0,1.9-1.5,3.4-3.4,3.4l0,0c-1.9,0-3.4-1.5-3.4-3.4V78.4c0-1.9,1.5-3.4,3.4-3.4l0,0&#10;&#9;&#9;c1.9,0,3.4,1.5,3.4,3.4V91.1z" style="fill: rgb(6, 15, 20);"/>
	<path d="M 206.300003 90.199997 H 211.700003 V 91.199997 H 206.300003 V 90.199997 Z" class="st15" style="fill: rgb(6, 15, 20);"/>
	<path d="M 206.300003 78.900002 H 211.700003 V 79.900002 H 206.300003 V 78.900002 Z" class="st15" style="fill: rgb(6, 15, 20);"/>
	<path class="st8" d="M214.1,136.3c-0.4,0.7-0.7,1.6-0.7,2.5v6.2c0,2.6,2.1,4.8,4.8,4.8s4.8-2.1,4.8-4.8v-6.2c0-0.9-0.3-1.8-0.7-2.5&#10;&#9;&#9;H214.1z" style="fill: rgb(42, 42, 42);"/>
	<path class="st8" d="M281.7,136.3c-0.4,0.7-0.7,1.6-0.7,2.5v6.2c0,2.6,2.1,4.8,4.8,4.8c2.6,0,4.8-2.1,4.8-4.8v-6.2&#10;&#9;&#9;c0-0.9-0.3-1.8-0.7-2.5H281.7z" style="fill: rgb(42, 42, 42);"/>
	<path d="M 210.399994 73.300003 H 252.299995 V 131.500004 H 210.399994 V 73.300003 Z" class="st10" style="fill: rgb(251, 190, 14);"/>
	<path d="M 251.600006 73.300003 H 293.500008 V 131.500004 H 251.600006 V 73.300003 Z" class="st10" style="fill: rgb(251, 190, 14);"/>
	<path class="st15" d="M291.2,82.5c0,0-0.1-4.8-3-4.8c-2.6,0-30.9,0-35.8,0c0,0-0.3,0-0.7,0c-4.9,0-33.2,0-35.8,0&#10;&#9;&#9;c-2.9,0-3,4.8-3,4.8l-0.5,16.6h39.3h0.7h39.3L291.2,82.5z" style="fill: rgb(6, 15, 20);"/>
	<path class="st16" d="M239.7,97.8c0.2-0.1-25.4,0-25.4,0l0.2-13c0,0-0.3-5.3,2.6-5.3c2.9,0,40.3,0,40.3,0v18.3H239.7z" style="fill: rgb(46, 51, 57);"/>
	<path class="st16" d="M264.4,97.8c-0.2-0.1,25.4,0,25.4,0l-0.2-13c0,0,0.3-5.3-2.6-5.3c-2.9,0-40.3,0-40.3,0v18.3H264.4z" style="fill: rgb(46, 51, 57);"/>
	<path class="st3" d="M297.4,133c0,2.6-2.1,4.7-4.8,4.7h-80.6c-2.6,0-4.8-2.1-4.8-4.7l0,0c0-2.6,2.1-4.7,4.8-4.7h80.6&#10;&#9;&#9;C295.3,128.3,297.4,130.4,297.4,133L297.4,133z" style="fill: rgb(5, 8, 13);"/>
	<path class="st11" d="M213.4,128.3v-13.1c0,0,0.1-4.4,4.3-4.4c4.2,0,5.2,0,5.2,0h3.3v-4.7c0,0-0.2-3.4,3.4-3.4c3.6,0,22,0,22,0h0.7&#10;&#9;&#9;v25.7H213.4z" style="fill: rgb(186, 143, 13);"/>
	<path class="st10" d="M252.4,73.3V56.2c0,0-41.9-1.2-41.9,17.1H252.4z" style="fill: rgb(251, 190, 14);"/>
	<path class="st15" d="M229.6,58.2c-9.9,2.1-19.2,6.4-19.2,15h19.2V58.2z" style="fill: rgb(6, 15, 20);"/>
	<path d="M 227.2 67.400002 A 2.7 2.7 0 0 1 224.5 70.100002 A 2.7 2.7 0 0 1 221.8 67.400002 A 2.7 2.7 0 0 1 224.5 64.700001 A 2.7 2.7 0 0 1 227.2 67.400002 Z" class="st10" style="fill: rgb(251, 190, 14);"/>
	<path d="M 225.600006 66.199997 A 0.5 0.5 0 0 1 225.100006 66.699997 A 0.5 0.5 0 0 1 224.600006 66.199997 A 0.5 0.5 0 0 1 225.100006 65.699997 A 0.5 0.5 0 0 1 225.600006 66.199997 Z" class="st19" style="fill: rgb(255, 255, 255);"/>
	<path d="M 220.399997 67.400002 A 2.7 2.7 0 0 1 217.699997 70.100002 A 2.7 2.7 0 0 1 214.999997 67.400002 A 2.7 2.7 0 0 1 217.699997 64.700001 A 2.7 2.7 0 0 1 220.399997 67.400002 Z" class="st10" style="fill: rgb(251, 190, 14);"/>
	<path d="M 218.800003 66.199997 A 0.5 0.5 0 0 1 218.300003 66.699997 A 0.5 0.5 0 0 1 217.800003 66.199997 A 0.5 0.5 0 0 1 218.300003 65.699997 A 0.5 0.5 0 0 1 218.800003 66.199997 Z" class="st19" style="fill: rgb(255, 255, 255);"/>
	<path class="st18" d="M250.4,91.3c-0.1,0.2-0.4,0.2-0.6,0.1l-19.5-16.2c-0.2-0.1-0.2-0.4-0.1-0.6l0,0c0.1-0.2,0.4-0.2,0.6-0.1&#10;&#9;&#9;l19.5,16.2C250.5,90.9,250.6,91.2,250.4,91.3L250.4,91.3z" style="fill: rgb(60, 81, 98);"/>
	<path d="M 216.5 115.800003 H 227.1 V 126.000003 H 216.5 V 115.800003 Z" class="st12" style="fill: rgb(255, 236, 84);"/>
	<path d="M 224.500003 121.400002 A 2.7 2.7 0 0 1 221.800003 124.100002 A 2.7 2.7 0 0 1 219.100003 121.400002 A 2.7 2.7 0 0 1 221.800003 118.700001 A 2.7 2.7 0 0 1 224.500003 121.400002 Z" class="st11" style="fill: rgb(186, 143, 13);"/>
	<path d="M 222.899994 120.099998 A 0.5 0.5 0 0 1 222.399994 120.599998 A 0.5 0.5 0 0 1 221.899994 120.099998 A 0.5 0.5 0 0 1 222.399994 119.599998 A 0.5 0.5 0 0 1 222.899994 120.099998 Z" class="st19" style="fill: rgb(255, 255, 255);"/>
	<path class="st20" d="M231.4,128.3v-18c0-1,0.3-1.7,0.8-2.2c0.9-0.8,2.5-0.7,2.5-0.7l17.6,0V106h-17.5c-0.3,0-2.2-0.1-3.6,1&#10;&#9;&#9;c-0.9,0.8-1.3,1.9-1.3,3.3v18H231.4z" style="fill: rgb(35, 31, 32);"/>
	<path class="st11" d="M290.6,128.3v-13.1c0,0-0.1-4.4-4.3-4.4c-4.2,0-5.2,0-5.2,0h-3.3v-4.7c0,0,0.2-3.4-3.4-3.4c-3.6,0-22,0-22,0&#10;&#9;&#9;h-0.7v25.7H290.6z" style="fill: rgb(186, 143, 13);"/>
	<path class="st10" d="M251.6,73.3V56.2c0,0,41.9-1.2,41.9,17.1H251.6z" style="fill: rgb(251, 190, 14);"/>
	<path class="st15" d="M274.4,58.2c9.9,2.1,19.2,6.4,19.2,15h-19.2V58.2z" style="fill: rgb(6, 15, 20);"/>
	<path d="M 282.1 67.400002 A 2.6 2.6 0 0 1 279.5 70.000001 A 2.6 2.6 0 0 1 276.9 67.400002 A 2.6 2.6 0 0 1 279.5 64.800002 A 2.6 2.6 0 0 1 282.1 67.400002 Z" class="st10" style="fill: rgb(251, 190, 14);"/>
	<path d="M 279.399994 66.199997 A 0.5 0.5 0 0 1 278.899994 66.699997 A 0.5 0.5 0 0 1 278.399994 66.199997 A 0.5 0.5 0 0 1 278.899994 65.699997 A 0.5 0.5 0 0 1 279.399994 66.199997 Z" class="st19" style="fill: rgb(255, 255, 255);"/>
	<path d="M 288.999988 67.400002 A 2.7 2.7 0 0 1 286.299988 70.100002 A 2.7 2.7 0 0 1 283.599988 67.400002 A 2.7 2.7 0 0 1 286.299988 64.700001 A 2.7 2.7 0 0 1 288.999988 67.400002 Z" class="st10" style="fill: rgb(251, 190, 14);"/>
	<path d="M 286.200012 66.199997 A 0.5 0.5 0 0 1 285.700012 66.699997 A 0.5 0.5 0 0 1 285.200012 66.199997 A 0.5 0.5 0 0 1 285.700012 65.699997 A 0.5 0.5 0 0 1 286.200012 66.199997 Z" class="st19" style="fill: rgb(255, 255, 255);"/>
	<path class="st18" d="M253.6,91.3c0.1,0.2,0.4,0.2,0.6,0.1l19.5-16.2c0.2-0.1,0.2-0.4,0.1-0.6l0,0c-0.1-0.2-0.4-0.2-0.6-0.1&#10;&#9;&#9;l-19.5,16.2C253.5,90.9,253.4,91.2,253.6,91.3L253.6,91.3z" style="fill: rgb(60, 81, 98);"/>
	<path d="M 276.899994 115.800003 H 287.499994 V 126.000003 H 276.899994 V 115.800003 Z" class="st12" style="fill: rgb(255, 236, 84);"/>
	<path d="M 284.800012 121.400002 A 2.6 2.6 0 0 1 282.200012 124.000001 A 2.6 2.6 0 0 1 279.600012 121.400002 A 2.6 2.6 0 0 1 282.200012 118.800002 A 2.6 2.6 0 0 1 284.800012 121.400002 Z" class="st11" style="fill: rgb(186, 143, 13);"/>
	<path d="M 282.100006 120.099998 A 0.5 0.5 0 0 1 281.600006 120.599998 A 0.5 0.5 0 0 1 281.100006 120.099998 A 0.5 0.5 0 0 1 281.600006 119.599998 A 0.5 0.5 0 0 1 282.100006 120.099998 Z" class="st19" style="fill: rgb(255, 255, 255);"/>
	<path class="st20" d="M272.6,128.3v-18c0-1-0.3-1.7-0.8-2.2c-0.9-0.8-2.5-0.7-2.5-0.7l-17.6,0V106h17.5c0.3,0,2.2-0.1,3.6,1&#10;&#9;&#9;c0.9,0.8,1.3,1.9,1.3,3.3v18H272.6z" style="fill: rgb(35, 31, 32);"/>
	<path d="M 232.899994 109.5 H 271.699993 V 111.1 H 232.899994 V 109.5 Z" class="st20" style="fill: rgb(35, 31, 32);"/>
	<path d="M 232.899994 114.699997 H 271.699993 V 116.299997 H 232.899994 V 114.699997 Z" class="st20" style="fill: rgb(35, 31, 32);"/>
	<path d="M 232.899994 118.800003 H 271.699993 V 120.400003 H 232.899994 V 118.800003 Z" class="st20" style="fill: rgb(35, 31, 32);"/>
	<path d="M 232.899994 124 H 271.699993 V 125.6 H 232.899994 V 124 Z" class="st20" style="fill: rgb(35, 31, 32);"/>
	<path class="st3" d="M271.7,66.7c0,2.3-1.9,4.2-4.2,4.2h-30.4c-2.3,0-4.2-1.9-4.2-4.2l0,0c0-2.3,1.9-4.2,4.2-4.2h30.4&#10;&#9;&#9;C269.8,62.6,271.7,64.4,271.7,66.7L271.7,66.7z" style="fill: rgb(5, 8, 13);"/>
	<path d="M 248.800006 59.200001 A 1.2 1.2 0 0 1 247.600006 60.400001 A 1.2 1.2 0 0 1 246.400006 59.200001 A 1.2 1.2 0 0 1 247.600006 58.000001 A 1.2 1.2 0 0 1 248.800006 59.200001 Z" class="st11" style="fill: rgb(186, 143, 13);"/>
	<path d="M 257.900012 59.200001 A 1.2 1.2 0 0 1 256.700012 60.400001 A 1.2 1.2 0 0 1 255.500012 59.200001 A 1.2 1.2 0 0 1 256.700012 58.000001 A 1.2 1.2 0 0 1 257.900012 59.200001 Z" class="st11" style="fill: rgb(186, 143, 13);"/>
	<path d="M 253.500003 59.200001 A 1.2 1.2 0 0 1 252.300003 60.400001 A 1.2 1.2 0 0 1 251.100003 59.200001 A 1.2 1.2 0 0 1 252.300003 58.000001 A 1.2 1.2 0 0 1 253.500003 59.200001 Z" class="st11" style="fill: rgb(186, 143, 13);"/>
	<path d="M 258.1000061035156 96.80000305175781 L 241.39999389648438 96.80000305175781 L 235.5 100.0999984741211 L 235.5 101.30000305175781 L 258.1000061035156 101.30000305175781 Z" class="st10" style="fill: rgb(251, 190, 14);"/>
	<path d="M 244.3000030517578 96.80000305175781 L 260.8999938964844 96.80000305175781 L 266.8999938964844 100.0999984741211 L 266.8999938964844 101.30000305175781 L 244.3000030517578 101.30000305175781 Z" class="st10" style="fill: rgb(251, 190, 14);"/>
</g></g><path d="M 176.68096923828125 192.2915802001953 C 176.52804565429688 192.54690551757812 176.48370361328125 192.7084197998047 176.54794311523438 192.77613830566406 C 176.6075897216797 192.83901977539062 176.94732666015625 192.7418670654297 177.567138671875 192.48471069335938 C 178.182373046875 192.22271728515625 178.8675994873047 192.07809448242188 179.62283325195312 192.0508575439453 C 180.37322998046875 192.0281982421875 181.0786590576172 192.19064331054688 181.73912048339844 192.5381622314453 C 182.7438201904297 193.06451416015625 183.6705780029297 193.77508544921875 184.51937866210938 194.6698760986328 C 185.36358642578125 195.55982971191406 186.12628173828125 196.2330780029297 186.8074493408203 196.68959045410156 C 187.49343872070312 197.1415252685547 188.07528686523438 197.43038940429688 188.55296325683594 197.55616760253906 C 189.5498809814453 197.84181213378906 190.28147888183594 197.90591430664062 190.7477569580078 197.74844360351562 L 191.05377197265625 197.6787109375 C 191.24325561523438 197.64598083496094 191.39076232910156 197.68524169921875 191.4962921142578 197.79647827148438 C 191.76698303222656 198.08184814453125 191.53883361816406 198.77610778808594 190.8118133544922 199.8792724609375 C 190.09422302246094 200.98268127441406 189.47666931152344 201.77984619140625 188.95913696289062 202.27076721191406 C 187.95310974121094 203.22509765625 186.92913818359375 203.4291534423828 185.88722229003906 202.88294982910156 C 184.84072875976562 202.3319091796875 183.39068603515625 201.07937622070312 181.53707885742188 199.12535095214844 L 180.0436553955078 197.55101013183594 C 178.47451782226562 195.89686584472656 176.98095703125 195.31045532226562 175.56298828125 195.79177856445312 C 175.0203094482422 195.98495483398438 174.4829559326172 196.33389282226562 173.95091247558594 196.8385772705078 L 173.92189025878906 196.86610412597656 C 173.7526092529297 197.02670288085938 173.50967407226562 196.94012451171875 173.19309997558594 196.60638427734375 C 172.8765106201172 196.2726593017578 172.6544952392578 195.84002685546875 172.5270538330078 195.3085174560547 C 172.39959716796875 194.77699279785156 172.4132537841797 194.4378204345703 172.5680389404297 194.29100036621094 C 173.1919708251953 193.6991424560547 173.6212615966797 193.0667724609375 173.85594177246094 192.39390563964844 C 174.0857696533203 191.72561645507812 174.1417999267578 191.1211395263672 174.02401733398438 190.5804443359375 C 173.78053283691406 189.44224548339844 173.43495178222656 188.5984649658203 172.9873046875 188.049072265625 L 172.63632202148438 187.67906188964844 C 171.96644592285156 186.972900390625 171.28604125976562 186.48809814453125 170.59506225585938 186.22467041015625 C 169.90892028808594 185.95663452148438 169.3046875 185.8911895751953 168.7823486328125 186.02830505371094 C 167.92739868164062 186.26040649414062 167.20489501953125 186.6563262939453 166.61480712890625 187.21607971191406 C 166.0247344970703 187.7758331298828 165.5822296142578 188.2828826904297 165.2873077392578 188.73724365234375 C 164.902099609375 189.39671325683594 164.78977966308594 189.81109619140625 164.9503631591797 189.98037719726562 C 167.14395141601562 192.63185119628906 169.33731079101562 195.1135711669922 171.5304412841797 197.42550659179688 C 173.71896362304688 199.73260498046875 175.4273681640625 201.47059631347656 176.65562438964844 202.6394805908203 C 177.8887176513672 203.8037567138672 178.8946990966797 204.7286376953125 179.67356872558594 205.41409301757812 C 180.45245361328125 206.0995330810547 180.90611267089844 206.50997924804688 181.03457641601562 206.64540100097656 C 181.26858520507812 206.89207458496094 181.3614501953125 207.12559509277344 181.31320190429688 207.34596252441406 C 181.2227020263672 208.81015014648438 180.34071350097656 210.33599853515625 178.66722106933594 211.92347717285156 C 178.38185119628906 212.19418334960938 178.14739990234375 212.23280334472656 177.96388244628906 212.03932189941406 C 177.9134063720703 211.9861297607422 177.81625366210938 211.82559204101562 177.67242431640625 211.55770874023438 C 177.4481201171875 210.9434814453125 176.26918029785156 209.42457580566406 174.13558959960938 207.00103759765625 C 172.006591796875 204.5823211669922 170.02676391601562 202.40805053710938 168.19610595703125 200.47821044921875 C 166.36544799804688 198.54837036132812 164.8424835205078 197.02040100097656 163.6272430419922 195.89431762695312 C 161.7998046875 194.20034790039062 160.5810089111328 193.29815673828125 159.97088623046875 193.187744140625 C 159.51055908203125 193.1190185546875 159.2299346923828 193.0314483642578 159.12899780273438 192.925048828125 C 159.0326385498047 192.82347106933594 159.0334014892578 192.61599731445312 159.13125610351562 192.30262756347656 C 159.8087158203125 190.57569885253906 161.74354553222656 188.19815063476562 164.93576049804688 185.1699981689453 C 167.50404357910156 182.73370361328125 170.11013793945312 181.6352996826172 172.7540283203125 181.8748016357422 C 174.19789123535156 182.02134704589844 175.48873901367188 182.69436645507812 176.6265869140625 183.89385986328125 C 177.3102264404297 184.61453247070312 177.78004455566406 185.3955841064453 178.0360870361328 186.2370147705078 C 178.2921142578125 187.07843017578125 178.35426330566406 187.85108947753906 178.22251892089844 188.55496215820312 C 178.00257873535156 189.9214324951172 177.6038818359375 191.00259399414062 177.02642822265625 191.7984619140625 L 176.68096923828125 192.2915802001953 ZM 185.14659118652344 177.8336944580078 L 184.35372924804688 178.3402099609375 C 183.76947021484375 178.7494659423828 183.490234375 179.15260314941406 183.51602172851562 179.54965209960938 C 183.5182342529297 179.64578247070312 183.486572265625 179.71678161621094 183.42105102539062 179.76268005371094 C 183.142578125 179.95773315429688 182.66867065429688 179.57748413085938 181.9993438720703 178.62191772460938 C 181.33001708984375 177.66635131835938 181.0501708984375 176.95889282226562 181.15982055664062 176.49954223632812 C 181.2694549560547 176.04019165039062 181.68466186523438 175.55809020996094 182.4054412841797 175.05322265625 C 183.12620544433594 174.54835510253906 183.7009735107422 174.3289031982422 184.1297149658203 174.39486694335938 C 184.5584716796875 174.4608154296875 184.97555541992188 174.783203125 185.3809814453125 175.36199951171875 C 185.78639221191406 175.9407958984375 185.973876953125 176.41180419921875 185.94338989257812 176.77500915527344 C 185.9036407470703 177.13656616210938 185.63803100585938 177.48947143554688 185.14659118652344 177.8336944580078 M 193.95465087890625 195.8992156982422 L 189.05987548828125 188.14419555664062 C 187.81301879882812 186.36410522460938 186.75917053222656 185.29531860351562 185.8983154296875 184.93785095214844 C 185.61810302734375 184.81668090820312 185.35511779785156 184.7607879638672 185.10934448242188 184.7701416015625 C 184.9477081298828 184.81825256347656 184.82098388671875 184.7767791748047 184.72918701171875 184.64573669433594 C 184.46145629882812 184.2635040283203 184.74822998046875 183.5050811767578 185.5895233154297 182.37046813964844 C 186.4253387451172 181.2396697998047 187.09716796875 180.49642944335938 187.60498046875 180.14073181152344 C 188.1073455810547 179.7888641357422 188.45932006835938 179.7335968017578 188.66091918945312 179.9749298095703 C 188.96307373046875 180.40631103515625 189.75592041015625 181.66604614257812 191.03945922851562 183.754150390625 C 192.33229064941406 185.84390258789062 193.75320434570312 187.9945068359375 195.30221557617188 190.2059783935547 C 196.85122680664062 192.4174346923828 197.94146728515625 193.7008514404297 198.5729217529297 194.0561981201172 C 198.71495056152344 194.11952209472656 198.82229614257812 194.2030487060547 198.89495849609375 194.30679321289062 C 199.09002685546875 194.58526611328125 198.77801513671875 195.01136779785156 197.95895385742188 195.58506774902344 C 197.14535522460938 196.1549530029297 196.16075134277344 196.5271759033203 195.00514221191406 196.70175170898438 C 194.71023559570312 196.7455291748047 194.3600616455078 196.47802734375 193.95465087890625 195.8992156982422 ZM 200.44387817382812 172.50399780273438 C 200.86270141601562 172.28347778320312 201.2681884765625 172.13778686523438 201.66033935546875 172.06692504882812 C 202.04937744140625 171.9901580810547 202.2556915283203 171.94557189941406 202.27928161621094 171.93313598632812 L 202.39427185058594 171.65786743164062 L 200.26284790039062 167.93179321289062 C 199.87399291992188 167.30776977539062 199.4418487548828 166.82330322265625 198.96641540527344 166.47842407226562 C 198.48818969726562 166.14254760742188 198.12037658691406 165.95196533203125 197.8629608154297 165.90667724609375 L 197.45590209960938 165.90628051757812 C 197.27053833007812 165.8833465576172 197.14678955078125 165.81288146972656 197.0846710205078 165.6949005126953 C 196.9014129638672 165.34686279296875 197.22840881347656 164.65858459472656 198.06564331054688 163.6300811767578 C 198.89385986328125 162.59877014160156 199.6117706298828 161.92315673828125 200.2193603515625 161.60324096679688 C 200.82106018066406 161.28643798828125 201.2122802734375 161.242431640625 201.3930206298828 161.4712371826172 C 201.9213104248047 162.20266723632812 202.767822265625 163.6744384765625 203.9325714111328 165.88653564453125 C 205.10043334960938 168.10452270507812 206.19483947753906 170.3046875 207.21583557128906 172.4869842529297 C 208.23402404785156 174.67831420898438 209.4543914794922 177.12481689453125 210.87693786621094 179.82652282714844 C 212.2994842529297 182.52822875976562 213.36802673339844 184.13548278808594 214.0825653076172 184.64830017089844 C 214.2608184814453 184.75787353515625 214.38720703125 184.88345336914062 214.4617462158203 185.0250244140625 C 214.64500427246094 185.37306213378906 214.23817443847656 185.80953979492188 213.2412567138672 186.33445739746094 C 211.33590698242188 187.3376922607422 210.1456298828125 187.38804626464844 209.67041015625 186.48550415039062 C 209.4275360107422 186.1387176513672 209.10110473632812 185.5760040283203 208.6911163330078 184.79734802246094 C 208.2811279296875 184.01869201660156 207.5952911376953 182.53012084960938 206.63360595703125 180.3316650390625 C 205.6688232421875 178.12728881835938 204.8835906982422 176.44996643066406 204.27792358398438 175.2996826171875 C 203.67535400390625 174.15528869628906 202.79893493652344 173.88592529296875 201.6486358642578 174.49159240722656 C 200.49835205078125 175.09725952148438 199.97645568847656 176.23098754882812 200.0829315185547 177.8927459716797 C 200.1894073486328 179.5545196533203 200.5967254638672 181.05787658691406 201.30490112304688 182.40283203125 C 202.80508422851562 185.2519989013672 204.2748565673828 186.2976531982422 205.7141876220703 185.539794921875 C 205.920654296875 185.43109130859375 206.1010284423828 185.28713989257812 206.25531005859375 185.1079559326172 C 206.4123992919922 184.91976928710938 206.5145263671875 184.81324768066406 206.5617218017578 184.7884063720703 C 206.7445831298828 184.69210815429688 206.94967651367188 184.73104858398438 207.17698669433594 184.9051971435547 C 207.40740966796875 185.0852508544922 207.58319091796875 185.29029846191406 207.70433044433594 185.52035522460938 C 208.11741638183594 186.30491638183594 208.15280151367188 187.13766479492188 207.81048583984375 188.0186004638672 C 207.470947265625 188.89053344726562 206.84991455078125 189.56411743164062 205.94737243652344 190.03933715820312 C 204.55523681640625 190.7723388671875 203.18531799316406 190.71762084960938 201.8376007080078 189.8751678466797 C 200.48678588867188 189.0268096923828 199.33616638183594 187.70010375976562 198.3857421875 185.89503479003906 C 197.17750549316406 183.60035705566406 196.59878540039062 181.17764282226562 196.64956665039062 178.62689208984375 C 196.6915740966797 177.36160278320312 197.03509521484375 176.18243408203125 197.68011474609375 175.08937072753906 C 198.31924438476562 173.99940490722656 199.24049377441406 173.1376190185547 200.44387817382812 172.50399780273438 ZM 217.6894073486328 173.15870666503906 L 218.04713439941406 174.08267211914062 C 218.0966796875 174.227783203125 218.22239685058594 174.265869140625 218.42428588867188 174.1969451904297 C 219.19554138183594 173.8561248779297 219.81951904296875 173.4141387939453 220.2962646484375 172.8709716796875 C 220.775146484375 172.3341064453125 221.09176635742188 171.80685424804688 221.24612426757812 171.28921508789062 C 221.53099060058594 170.1634521484375 221.58450317382812 169.257568359375 221.40663146972656 168.5715789794922 L 221.29263305664062 168.11386108398438 C 220.83596801757812 166.77633666992188 220.07452392578125 166.2895965576172 219.00828552246094 166.65362548828125 C 218.21334838867188 166.925048828125 217.6851348876953 167.4928436279297 217.4236602783203 168.3570098876953 C 216.97613525390625 169.72850036621094 217.06472778320312 171.32907104492188 217.6894073486328 173.15870666503906 M 227.4895782470703 175.339111328125 C 227.8126983642578 176.2854766845703 227.90245056152344 177.1776580810547 227.75885009765625 178.0156707763672 C 227.62156677246094 178.85153198242188 227.3671112060547 179.51959228515625 226.99546813964844 180.01983642578125 C 226.62384033203125 180.52008056640625 226.14964294433594 180.97784423828125 225.57290649414062 181.3931427001953 C 224.83888244628906 181.925537109375 224.09963989257812 182.31883239746094 223.35516357421875 182.572998046875 C 221.27317810058594 183.28384399414062 219.4698028564453 183.0260467529297 217.945068359375 181.79957580566406 C 216.4203338623047 180.5731201171875 215.24546813964844 178.75169372558594 214.4204559326172 176.3353271484375 C 213.59544372558594 173.9189453125 213.47288513183594 171.55860900878906 214.0527801513672 169.25430297851562 C 214.6389923095703 166.94784545898438 216.15919494628906 165.3756561279297 218.61343383789062 164.5377197265625 C 220.8468475341797 163.77517700195312 222.6281280517578 164.04052734375 223.957275390625 165.33377075195312 C 224.4815216064453 165.81695556640625 224.83518981933594 166.32669067382812 225.01829528808594 166.8629608154297 C 225.19923400878906 167.39292907714844 225.31724548339844 167.8210906982422 225.372314453125 168.14747619628906 C 225.42955017089844 168.48016357421875 225.4154510498047 169.0062713623047 225.3300323486328 169.72579956054688 C 225.24459838867188 170.44532775878906 225.0377655029297 171.13938903808594 224.7095184326172 171.8079833984375 C 224.37911987304688 172.4702606201172 223.7572784423828 173.20738220214844 222.84397888183594 174.0193634033203 C 221.93067932128906 174.8313446044922 220.77957153320312 175.5554656982422 219.39064025878906 176.1916961669922 C 219.195068359375 176.2584686279297 219.12742614746094 176.38018798828125 219.187744140625 176.5568389892578 C 219.2631378173828 176.7776641845703 219.45401000976562 177.0788116455078 219.7603759765625 177.4602813720703 C 220.0730438232422 177.839599609375 220.37777709960938 178.14413452148438 220.6746063232422 178.37388610839844 C 221.46044921875 178.88047790527344 222.386474609375 178.95176696777344 223.4527130126953 178.5877227783203 C 224.51895141601562 178.2236785888672 225.3058319091797 177.5675811767578 225.8133544921875 176.61940002441406 C 226.08372497558594 176.1114501953125 226.24932861328125 175.544189453125 226.31011962890625 174.9176025390625 C 226.34214782714844 174.68124389648438 226.43701171875 174.53614807128906 226.59474182128906 174.48228454589844 C 226.75877380371094 174.42628479003906 226.9375762939453 174.51669311523438 227.1311492919922 174.75352478027344 C 227.320556640625 174.99880981445312 227.44004821777344 175.19400024414062 227.4895782470703 175.339111328125 ZM 241.02264404296875 148.97328186035156 L 246.6848602294922 148.70660400390625 C 249.1851806640625 148.4512481689453 250.95201110839844 147.96923828125 251.98536682128906 147.2605743408203 C 252.13369750976562 147.13819885253906 252.2642364501953 147.07125854492188 252.37698364257812 147.0597381591797 C 252.49636840820312 147.04754638671875 252.57467651367188 147.22384643554688 252.6119384765625 147.58860778808594 C 252.64918518066406 147.95338439941406 252.48831176757812 148.57627868652344 252.12930297851562 149.4573211669922 C 251.61007690429688 150.8037109375 250.73699951171875 151.53955078125 249.51004028320312 151.6648712158203 L 247.35716247558594 151.8445281982422 C 247.1515655517578 151.86553955078125 247.03408813476562 151.9947967529297 247.00473022460938 152.2323455810547 C 247.21054077148438 156.08470153808594 247.5403594970703 160.232666015625 247.9941864013672 164.67620849609375 C 248.4486846923828 169.12640380859375 248.97279357910156 172.45370483398438 249.56651306152344 174.65811157226562 L 249.5858154296875 174.84713745117188 C 249.6528778076172 175.50372314453125 249.089599609375 176.0906524658203 247.89598083496094 176.60794067382812 C 246.6957244873047 177.1259002685547 245.54844665527344 177.44076538085938 244.45413208007812 177.55252075195312 C 243.93019104003906 177.6060333251953 243.6533203125 177.4868927001953 243.62351989746094 177.195068359375 C 243.61607360839844 177.1221160888672 243.63723754882812 176.9356689453125 243.68701171875 176.63572692871094 C 243.91395568847656 176.03622436523438 243.8858184814453 173.23458862304688 243.6026153564453 168.23080444335938 C 243.3127899169922 163.22769165039062 243.03883361816406 159.46270751953125 242.78076171875 156.93585205078125 L 242.2653045654297 152.67617797851562 C 242.24972534179688 152.52365112304688 242.16099548339844 152.44223022460938 241.99911499023438 152.4319610595703 C 241.44444274902344 152.3813934326172 240.8155975341797 152.3920135498047 240.11257934570312 152.46380615234375 C 238.69993591308594 152.6080780029297 237.68482971191406 153.00326538085938 237.06727600097656 153.64935302734375 C 236.9010772705078 153.7936553955078 236.7317657470703 153.87460327148438 236.559326171875 153.89222717285156 C 236.39352416992188 153.90914916992188 236.3001251220703 153.8148193359375 236.2791290283203 153.60922241210938 C 236.24728393554688 153.29751586914062 236.36575317382812 152.84982299804688 236.63450622558594 152.26617431640625 C 236.90325927734375 151.68251037597656 237.20004272460938 151.17640686035156 237.52484130859375 150.7478485107422 C 238.31805419921875 149.72195434570312 239.48397827148438 149.13043212890625 241.02264404296875 148.97328186035156 ZM 262.4833984375 154.819580078125 L 262.2483825683594 158.62254333496094 C 262.24017333984375 158.78233337402344 262.2893371582031 158.86495971679688 262.3958740234375 158.8704071044922 C 262.5024108886719 158.87586975097656 262.6076354980469 158.84121704101562 262.71160888671875 158.76644897460938 C 263.39361572265625 158.35415649414062 264.44036865234375 158.18418884277344 265.8518371582031 158.25656127929688 C 268.2353820800781 158.37876892089844 269.841552734375 159.2755126953125 270.67041015625 160.94680786132812 C 270.979248046875 161.5634307861328 271.1080627441406 162.37109375 271.0568542480469 163.36978149414062 C 271.0060119628906 164.36180114746094 270.87890625 165.7337646484375 270.6756286621094 167.48565673828125 C 270.46600341796875 169.2305450439453 270.3424072265625 170.46917724609375 270.30487060546875 171.20155334472656 C 270.1734619140625 173.7648468017578 270.4524230957031 175.48472595214844 271.14178466796875 176.3611602783203 C 271.26812744140625 176.5011444091797 271.3280334472656 176.6343994140625 271.3215637207031 176.76089477539062 C 271.3078918457031 177.02720642089844 270.73846435546875 177.13153076171875 269.61328125 177.07383728027344 C 266.5772705078125 176.91818237304688 265.1318054199219 175.42555236816406 265.2768859863281 172.59593200683594 C 265.33319091796875 171.49737548828125 265.67205810546875 169.96604919433594 266.2934265136719 168.001953125 C 266.9214782714844 166.0382080078125 267.2595520019531 164.58694458007812 267.30767822265625 163.64817810058594 C 267.3561706542969 162.7027587890625 267.1703186035156 161.96560668945312 266.75018310546875 161.43673706054688 C 266.33038330078125 160.9011993408203 265.7276611328125 160.61329650878906 264.9420471191406 160.57301330566406 C 264.1564025878906 160.53273010253906 263.52850341796875 160.6707763671875 263.058349609375 160.9871063232422 C 262.5815734863281 161.30311584472656 262.280517578125 161.6414794921875 262.15521240234375 162.002197265625 L 262.0092468261719 162.50538635253906 C 261.95703125 163.0033721923828 261.8624572753906 164.58726501464844 261.7255859375 167.25709533691406 C 261.58868408203125 169.9269256591797 261.56634521484375 171.6647186279297 261.6585388183594 172.4705047607422 C 261.7507629394531 173.27627563476562 261.79412841796875 173.73243713378906 261.7886657714844 173.83895874023438 C 261.749755859375 174.59796142578125 261.2026062011719 175.24412536621094 260.1472473144531 175.77745056152344 C 259.09820556640625 176.31777954101562 258.0776672363281 176.56251525878906 257.08563232421875 176.51165771484375 C 256.7194519042969 176.49288940429688 256.547119140625 176.27377319335938 256.568603515625 175.8543243408203 L 256.67694091796875 175.10888671875 C 257.4814453125 170.74435424804688 258.01531982421875 165.99546813964844 258.27850341796875 160.86221313476562 C 258.38055419921875 158.87149047851562 258.4039306640625 156.85336303710938 258.34857177734375 154.807861328125 L 258.3531799316406 153.93695068359375 C 258.33746337890625 153.20184326171875 258.21990966796875 152.5649871826172 258.00054931640625 152.02638244628906 C 257.78082275390625 151.4944305419922 257.56854248046875 151.1431121826172 257.3636779785156 150.97239685058594 L 257.02386474609375 150.7647247314453 C 256.8428955078125 150.6486358642578 256.7558288574219 150.52401733398438 256.7626647949219 150.39085388183594 C 256.78143310546875 150.02467346191406 257.4203186035156 149.60684204101562 258.6793518066406 149.13735961914062 C 259.938720703125 148.6612091064453 260.90130615234375 148.44020080566406 261.56707763671875 148.47434997558594 C 262.2328796386719 148.50848388671875 262.5850830078125 148.67005920410156 262.6236572265625 148.95907592773438 C 262.66156005859375 150.3027801513672 262.61480712890625 152.25628662109375 262.4833984375 154.819580078125 ZM 279.689453125 167.8052520751953 L 279.5243835449219 168.7822265625 C 279.4927673339844 168.9322509765625 279.5813293457031 169.02928161621094 279.7900695800781 169.07327270507812 C 280.62713623046875 169.17478942871094 281.3893737792969 169.11402893066406 282.07684326171875 168.8910369873047 C 282.7629089355469 168.674560546875 283.3045959472656 168.38336181640625 283.70196533203125 168.0174560546875 C 284.5224304199219 167.1956787109375 285.0316467285156 166.44456481933594 285.2295837402344 165.76409912109375 L 285.3656921386719 165.3124542236328 C 285.6571960449219 163.92950439453125 285.2517395019531 163.12184143066406 284.1492919921875 162.8894500732422 C 283.3273620605469 162.7161865234375 282.5830993652344 162.93402099609375 281.91650390625 163.54295349121094 C 280.83056640625 164.49273681640625 280.0882263183594 165.9134979248047 279.689453125 167.8052520751953 M 286.99639892578125 174.69046020507812 C 286.7901306152344 175.66896057128906 286.4110412597656 176.48158264160156 285.859130859375 177.12831115722656 C 285.313720703125 177.7764129638672 284.75341796875 178.22039794921875 284.1782531738281 178.4602508544922 C 283.6030578613281 178.70010375976562 282.96148681640625 178.85101318359375 282.25347900390625 178.91297912597656 C 281.3504333496094 178.99514770507812 280.5140380859375 178.95510864257812 279.7442932128906 178.7928466796875 C 277.59161376953125 178.3390655517578 276.1736755371094 177.19534301757812 275.49053955078125 175.36166381835938 C 274.8074035644531 173.5279998779297 274.7291564941406 171.36195373535156 275.2558288574219 168.863525390625 C 275.7825012207031 166.36509704589844 276.8841552734375 164.27403259277344 278.5608215332031 162.59033203125 C 280.2440185546875 160.9080047607422 282.3544006347656 160.33428955078125 284.8919677734375 160.86920166015625 C 287.20123291015625 161.35597229003906 288.5963134765625 162.49488830566406 289.07720947265625 164.2859344482422 C 289.2806396484375 164.96925354003906 289.32391357421875 165.58815002441406 289.20703125 166.14263916015625 C 289.091552734375 166.6905975341797 288.9739990234375 167.118896484375 288.85443115234375 167.4275360107422 C 288.7334899902344 167.74269104003906 288.4523620605469 168.18760681152344 288.010986328125 168.76226806640625 C 287.56964111328125 169.3369140625 287.0369873046875 169.82760620117188 286.4129943847656 170.23431396484375 C 285.7904052734375 170.63449096679688 284.8790588378906 170.94996643066406 283.6789855957031 171.1807403564453 C 282.47894287109375 171.4114990234375 281.1194152832031 171.4451446533203 279.6004943847656 171.2816619873047 C 279.39825439453125 171.23902893066406 279.27789306640625 171.30905151367188 279.2393798828125 171.49169921875 C 279.1912536621094 171.7200164794922 279.2012939453125 172.076416015625 279.2695007324219 172.56089782714844 C 279.34423828125 173.04676818847656 279.45037841796875 173.4643096923828 279.5879821777344 173.8135223388672 C 280.0042419433594 174.65072631835938 280.76361083984375 175.18551635742188 281.8660583496094 175.41790771484375 C 282.9684753417969 175.65029907226562 283.9801940917969 175.4888458251953 284.9012145996094 174.93353271484375 C 285.393310546875 174.63528442382812 285.8257141113281 174.23248291015625 286.1983642578125 173.72509765625 C 286.34674072265625 173.53836059570312 286.5024719238281 173.46217346191406 286.6655578613281 173.49655151367188 C 286.8351745605469 173.5323028564453 286.9425964355469 173.70143127441406 286.9878234863281 174.00393676757812 C 287.0251770019531 174.31158447265625 287.0280456542969 174.54043579101562 286.99639892578125 174.69046020507812 ZM 310.57110595703125 169.52890014648438 L 308.4196472167969 173.942626953125 L 305.2471923828125 179.95936584472656 C 305.2235412597656 180.06674194335938 305.235595703125 180.13230895996094 305.2833557128906 180.15606689453125 C 305.3310852050781 180.17982482910156 305.3787841796875 180.17376708984375 305.4264221191406 180.1378936767578 C 306.2186584472656 179.71299743652344 306.9609680175781 179.67279052734375 307.6533203125 180.0172882080078 C 308.3456726074219 180.36178588867188 308.6220703125 180.67430114746094 308.48248291015625 180.95481872558594 C 308.0370178222656 181.85012817382812 307.8656005859375 182.62115478515625 307.9682312011719 183.26792907714844 C 308.06787109375 183.92066955566406 308.4280700683594 184.40145874023438 309.0487976074219 184.7103271484375 C 309.6755065917969 185.02215576171875 310.4862365722656 184.8968505859375 311.4809265136719 184.33441162109375 C 312.47265625 183.77793884277344 313.3189697265625 182.79539489746094 314.01983642578125 181.3867950439453 C 314.25445556640625 180.91526794433594 314.4425964355469 180.30520629882812 314.5842590332031 179.5565948486328 C 314.861572265625 178.056396484375 314.5938415527344 176.8285675048828 313.7810363769531 175.87310791015625 C 313.18341064453125 175.18853759765625 312.0400390625 174.426025390625 310.3509216308594 173.5855712890625 C 310.1658935546875 173.49349975585938 310.1372375488281 173.31915283203125 310.26495361328125 173.0625 C 310.9183044433594 171.7493896484375 311.4896240234375 171.18479919433594 311.97894287109375 171.3686981201172 C 312.61163330078125 171.68348693847656 313.3617858886719 171.8519744873047 314.22943115234375 171.8741455078125 C 315.9646911621094 171.91847229003906 317.3401794433594 170.9199981689453 318.3558654785156 168.87872314453125 C 319.45172119140625 166.67628479003906 318.7342834472656 164.9454803466797 316.2035827636719 163.686279296875 L 315.08013916015625 163.20545959472656 C 314.6088562011719 163.09010314941406 314.2854919433594 163.1488800048828 314.11004638671875 163.38177490234375 L 314.05657958984375 163.48919677734375 C 313.33367919921875 164.298583984375 312.1718444824219 166.3118133544922 310.57110595703125 169.52890014648438 M 297.2708740234375 183.2842559814453 L 297.5340576171875 182.93492126464844 C 297.9776916503906 182.62696838378906 299.032958984375 181.0074920654297 300.6998291015625 178.0764923095703 C 302.3607482910156 175.14251708984375 303.84307861328125 172.3654022216797 305.1468200683594 169.74517822265625 C 306.4476013183594 167.13092041015625 307.4377746582031 165.00621032714844 308.1173400878906 163.37106323242188 C 308.80584716796875 161.73292541503906 309.0895690917969 160.44439697265625 308.9684753417969 159.50547790527344 C 308.9294128417969 159.3445587158203 308.9514465332031 159.18052673339844 309.03460693359375 159.01341247558594 C 309.1147766113281 158.85226440429688 309.32781982421875 158.78326416015625 309.6737060546875 158.80645751953125 C 311.9698181152344 159.01068115234375 314.77117919921875 159.93544006347656 318.0777893066406 161.58071899414062 C 318.9014587402344 161.9905548095703 319.73736572265625 162.54794311523438 320.58544921875 163.25289916992188 C 321.4365234375 163.95187377929688 322.09075927734375 164.61993408203125 322.54815673828125 165.25706481933594 C 323.0115051269531 165.8971710205078 323.3246154785156 166.6821746826172 323.4874267578125 167.612060546875 C 323.65618896484375 168.544921875 323.540283203125 169.49623107910156 323.1396484375 170.46597290039062 C 321.4468688964844 173.8680877685547 319.065673828125 175.12939453125 315.9960632324219 174.2498779296875 C 315.8290710449219 174.22634887695312 315.732177734375 174.241455078125 315.7054748535156 174.295166015625 C 315.6757507324219 174.3548583984375 315.7027893066406 174.45021057128906 315.7865295410156 174.5812225341797 C 317.1210632324219 175.53567504882812 318.04913330078125 176.7309112548828 318.5707092285156 178.1669464111328 C 318.8403625488281 178.85214233398438 318.9405212402344 179.76576232910156 318.8711853027344 180.9077911376953 C 318.8048095703125 182.04383850097656 318.4687194824219 183.22067260742188 317.8628845214844 184.43826293945312 C 317.078857421875 186.0139923095703 315.8768005371094 187.2774658203125 314.2567443847656 188.2287139892578 C 312.9404602050781 189.0034637451172 311.4428405761719 189.28216552734375 309.7638854980469 189.06480407714844 C 308.8244934082031 188.94737243652344 307.8623962402344 188.64364624023438 306.8775634765625 188.15362548828125 C 304.41253662109375 186.92709350585938 303.24224853515625 185.36561584472656 303.36676025390625 183.46917724609375 C 303.3785400390625 183.38568115234375 303.36053466796875 183.33204650878906 303.31280517578125 183.30828857421875 L 303.1116638183594 183.37576293945312 C 301.7966003417969 184.776611328125 299.96185302734375 184.93223571777344 297.6073913574219 183.84262084960938 C 297.27911376953125 183.67929077148438 297.16693115234375 183.4931640625 297.2708740234375 183.2842559814453 ZM 338.5018310546875 187.2572784423828 C 336.42767333984375 189.23513793945312 334.0770568847656 191.97642517089844 331.449951171875 195.48110961914062 C 329.51861572265625 198.05760192871094 328.3490905761719 199.83457946777344 327.94134521484375 200.81201171875 L 327.76348876953125 201.31605529785156 C 327.5595397949219 201.58810424804688 327.22552490234375 201.55020141601562 326.7614440917969 201.2023162841797 C 325.15045166015625 199.99473571777344 324.56549072265625 198.8522186279297 325.0065612792969 197.7747802734375 C 325.065185546875 197.652099609375 325.0598449707031 197.56475830078125 324.990478515625 197.5127716064453 C 324.9158020019531 197.45680236816406 324.8144836425781 197.44749450683594 324.6864929199219 197.48486328125 C 323.39190673828125 197.85586547851562 322.0644836425781 197.5315399169922 320.7042236328125 196.5118865966797 C 319.9467468261719 195.944091796875 319.3018798828125 195.1649169921875 318.7696228027344 194.1743927001953 C 318.44012451171875 193.5691375732422 318.3339538574219 192.86050415039062 318.4510803222656 192.04847717285156 C 318.5682067871094 191.2364501953125 318.9426574707031 190.4090118408203 319.5744323730469 189.56617736816406 L 325.2047424316406 183.03872680664062 C 326.2923583984375 181.5877685546875 326.9173889160156 180.44827270507812 327.079833984375 179.6202392578125 C 327.1451110839844 179.31088256835938 327.20172119140625 179.12420654296875 327.24969482421875 179.06019592285156 C 327.3416748046875 178.9375 327.4570007324219 178.89480590820312 327.5956726074219 178.93209838867188 C 328.0063781738281 179.07333374023438 328.47576904296875 179.3418731689453 329.0038757324219 179.73773193359375 C 331.0362854003906 181.26121520996094 331.4226989746094 182.8631134033203 330.1631164550781 184.54344177246094 C 329.7712707519531 185.0662078857422 328.6622009277344 186.10116577148438 326.8359375 187.64830017089844 C 325.00433349609375 189.19143676757812 323.79461669921875 190.35508728027344 323.20684814453125 191.1392364501953 C 322.61505126953125 191.92872619628906 322.3365478515625 192.66146850585938 322.37139892578125 193.33746337890625 C 322.4022521972656 194.01878356933594 322.72705078125 194.59136962890625 323.3458557128906 195.05520629882812 C 323.9646301269531 195.51904296875 324.6159973144531 195.6615447998047 325.2999572753906 195.48269653320312 C 325.9852600097656 195.3131866455078 326.5258483886719 195.0310516357422 326.9217529296875 194.6362762451172 L 327.50958251953125 194.0521240234375 C 328.1467590332031 193.3799591064453 329.1570739746094 192.12103271484375 330.5406188964844 190.2753448486328 C 331.92413330078125 188.4296417236328 332.74114990234375 187.21743774414062 332.9916687011719 186.63870239257812 C 333.2461853027344 186.0546417236328 333.41943359375 185.70126342773438 333.5113830566406 185.5785675048828 C 333.9072570800781 185.0504608154297 334.64056396484375 184.9502716064453 335.7113037109375 185.2779998779297 C 336.7767333984375 185.60171508789062 337.6455078125 186.01548767089844 338.317626953125 186.51931762695312 C 338.6323547363281 186.75523376464844 338.6937561035156 187.001220703125 338.5018310546875 187.2572784423828 ZM 342.71002197265625 208.1704559326172 C 341.90740966796875 208.96112060546875 341.0548095703125 209.49684143066406 340.1523132324219 209.7776336669922 C 339.2497863769531 210.05841064453125 338.46661376953125 210.14208984375 337.8027648925781 210.0286865234375 C 337.13421630859375 209.9105224609375 336.4501647949219 209.66259765625 335.7506103515625 209.284912109375 C 334.8255310058594 208.8018341064453 334.07763671875 208.2705841064453 333.5068359375 207.691162109375 C 332.30914306640625 206.47532653808594 331.5548095703125 205.22984313964844 331.24383544921875 203.9546661376953 C 330.9281005859375 202.68418884277344 331.29266357421875 201.5343017578125 332.3375244140625 200.50503540039062 C 332.9549255371094 199.89683532714844 333.62445068359375 199.56951904296875 334.3460693359375 199.52308654785156 C 335.44012451171875 199.4747314453125 336.3450622558594 199.8138885498047 337.06085205078125 200.54052734375 C 337.2854309082031 200.7685089111328 337.29559326171875 200.9830780029297 337.09136962890625 201.1842498779297 C 337.0723876953125 201.2029571533203 336.8854064941406 201.30291748046875 336.5304870605469 201.48410034179688 C 336.1755676269531 201.665283203125 335.79388427734375 201.95704650878906 335.38543701171875 202.35940551757812 C 334.9722595214844 202.7664337158203 334.7679748535156 203.29052734375 334.7725830078125 203.9316864013672 C 334.7771911621094 204.57284545898438 335.00872802734375 205.1261444091797 335.46722412109375 205.59158325195312 C 335.92572021484375 206.05702209472656 336.37371826171875 206.35031127929688 336.81121826171875 206.47145080566406 C 337.2439880371094 206.59727478027344 337.6376037597656 206.59786987304688 337.99212646484375 206.47325134277344 C 338.4930725097656 206.30731201171875 338.89312744140625 206.07696533203125 339.1923522949219 205.78221130371094 C 339.7337646484375 205.24887084960938 339.9349060058594 204.517333984375 339.7957458496094 203.58758544921875 C 339.65185546875 202.6625213623047 339.37103271484375 201.7647247314453 338.95330810546875 200.89418029785156 C 338.5308837890625 200.0188751220703 338.31658935546875 199.0508575439453 338.3104248046875 197.99012756347656 C 338.29949951171875 196.93406677246094 338.68585205078125 196.0200653076172 339.4695129394531 195.24810791015625 C 340.8135681152344 193.92410278320312 342.2391357421875 193.35733032226562 343.7462463378906 193.54779052734375 C 345.25811767578125 193.73358154296875 346.7298583984375 194.55311584472656 348.1614685058594 196.00640869140625 C 348.78839111328125 196.642822265625 349.3578186035156 197.4013671875 349.8697509765625 198.2820587158203 C 350.38177490234375 199.1533203125 350.4288024902344 199.7947998046875 350.0108642578125 200.2064971923828 C 349.5881652832031 200.6228790283203 349.1332702636719 200.93531799316406 348.6461181640625 201.143798828125 C 348.1495666503906 201.35220336914062 347.80072021484375 201.3542938232422 347.59954833984375 201.1500701904297 C 347.48724365234375 201.0360870361328 347.45513916015625 200.91799926757812 347.5032043457031 200.79579162597656 C 347.5465087890625 200.67825317382812 347.5807189941406 200.5182342529297 347.6058044433594 200.31570434570312 C 347.6214599609375 200.1131134033203 347.5440979003906 199.7448272705078 347.3736877441406 199.21084594726562 C 347.2032165527344 198.68629455566406 346.9939880371094 198.29815673828125 346.74603271484375 198.04644775390625 C 346.4980773925781 197.7947235107422 346.3272399902344 197.6308135986328 346.2335205078125 197.55467224121094 C 346.1398010253906 197.47854614257812 345.9686279296875 197.36175537109375 345.7199401855469 197.20433044433594 C 345.47601318359375 197.04220581054688 345.22235107421875 196.92245483398438 344.9589538574219 196.8450469970703 C 344.2956848144531 196.6562042236328 343.72894287109375 196.79336547851562 343.2587585449219 197.2565460205078 C 342.96429443359375 197.54661560058594 342.8089904785156 197.825927734375 342.7928161621094 198.0945281982422 C 342.7861022949219 198.36317443847656 342.78216552734375 198.57293701171875 342.7810363769531 198.72377014160156 C 342.77520751953125 198.869873046875 342.8160095214844 199.0870361328125 342.9034118652344 199.37525939941406 C 342.98138427734375 199.6634063720703 343.038818359375 199.8641815185547 343.0756530761719 199.97760009765625 C 343.1125183105469 200.0910186767578 343.20025634765625 200.33682250976562 343.3388366699219 200.71499633789062 C 343.47265625 201.0978546142578 343.5556640625 201.34361267089844 343.5878601074219 201.4522705078125 C 344.60791015625 204.3497314453125 344.3153076171875 206.58912658691406 342.71002197265625 208.1704559326172 Z" transform="matrix(1.2209957838058472, 0, 0, 1.2209957838058472, -181.90965270996094, -175.24542236328125)" style="fill: rgb(250, 255, 250); white-space: pre; color: rgb(51, 51, 51); fill-opacity: 1;"/></svg>