<?xml version="1.0" encoding="utf-8"?>
<svg id="master-artboard" viewBox="0 0 158 258" version="1.1" xmlns="http://www.w3.org/2000/svg" x="0px" y="0px" style="enable-background:new 0 0 1400 980;" width="158px" height="258px"><defs><path id="text-path-0" d="M 4.770652770996094 71.52581787109375 A 100 81 0 0 1 143.48745727539062 71.52581787109375 A 100 81 0 0 1 4.770652770996094 71.52581787109375 Z" style="fill: none; stroke: red; stroke-width: 2;"/></defs><rect id="ee-background" x="0" y="0" width="158" height="258" style="fill: white; fill-opacity: 0; pointer-events: none;"/><g transform="matrix(1.3688595294952393, 0, 0, 1.3688595294952393, -268.75464356484275, 10.297357475358314)"><g transform="matrix(1, 0, 0, 1, 0, 0)">
	<path class="st3" d="M296.7,91.1c0,1.9,1.5,3.4,3.4,3.4l0,0c1.9,0,3.4-1.5,3.4-3.4V78.4c0-1.9-1.5-3.4-3.4-3.4l0,0&#10;&#9;&#9;c-1.9,0-3.4,1.5-3.4,3.4V91.1z" style="fill: rgb(5, 8, 13);"/>
	<path d="M 292.299988 90.199997 H 297.699988 V 91.199997 H 292.299988 V 90.199997 Z" class="st3" style="fill: rgb(5, 8, 13);"/>
	<path d="M 292.299988 78.900002 H 297.699988 V 79.900002 H 292.299988 V 78.900002 Z" class="st3" style="fill: rgb(5, 8, 13);"/>
	<path class="st15" d="M207.3,91.1c0,1.9-1.5,3.4-3.4,3.4l0,0c-1.9,0-3.4-1.5-3.4-3.4V78.4c0-1.9,1.5-3.4,3.4-3.4l0,0&#10;&#9;&#9;c1.9,0,3.4,1.5,3.4,3.4V91.1z" style="fill: rgb(6, 15, 20);"/>
	<path d="M 206.300003 90.199997 H 211.700003 V 91.199997 H 206.300003 V 90.199997 Z" class="st15" style="fill: rgb(6, 15, 20);"/>
	<path d="M 206.300003 78.900002 H 211.700003 V 79.900002 H 206.300003 V 78.900002 Z" class="st15" style="fill: rgb(6, 15, 20);"/>
	<path class="st8" d="M214.1,136.3c-0.4,0.7-0.7,1.6-0.7,2.5v6.2c0,2.6,2.1,4.8,4.8,4.8s4.8-2.1,4.8-4.8v-6.2c0-0.9-0.3-1.8-0.7-2.5&#10;&#9;&#9;H214.1z" style="fill: rgb(42, 42, 42);"/>
	<path class="st8" d="M281.7,136.3c-0.4,0.7-0.7,1.6-0.7,2.5v6.2c0,2.6,2.1,4.8,4.8,4.8c2.6,0,4.8-2.1,4.8-4.8v-6.2&#10;&#9;&#9;c0-0.9-0.3-1.8-0.7-2.5H281.7z" style="fill: rgb(42, 42, 42);"/>
	<path d="M 210.399994 73.300003 H 252.299995 V 131.500004 H 210.399994 V 73.300003 Z" class="st10" style="fill: rgb(251, 190, 14);"/>
	<path d="M 251.600006 73.300003 H 293.500008 V 131.500004 H 251.600006 V 73.300003 Z" class="st10" style="fill: rgb(251, 190, 14);"/>
	<path class="st15" d="M291.2,82.5c0,0-0.1-4.8-3-4.8c-2.6,0-30.9,0-35.8,0c0,0-0.3,0-0.7,0c-4.9,0-33.2,0-35.8,0&#10;&#9;&#9;c-2.9,0-3,4.8-3,4.8l-0.5,16.6h39.3h0.7h39.3L291.2,82.5z" style="fill: rgb(6, 15, 20);"/>
	<path class="st16" d="M239.7,97.8c0.2-0.1-25.4,0-25.4,0l0.2-13c0,0-0.3-5.3,2.6-5.3c2.9,0,40.3,0,40.3,0v18.3H239.7z" style="fill: rgb(46, 51, 57);"/>
	<path class="st16" d="M264.4,97.8c-0.2-0.1,25.4,0,25.4,0l-0.2-13c0,0,0.3-5.3-2.6-5.3c-2.9,0-40.3,0-40.3,0v18.3H264.4z" style="fill: rgb(46, 51, 57);"/>
	<path class="st3" d="M297.4,133c0,2.6-2.1,4.7-4.8,4.7h-80.6c-2.6,0-4.8-2.1-4.8-4.7l0,0c0-2.6,2.1-4.7,4.8-4.7h80.6&#10;&#9;&#9;C295.3,128.3,297.4,130.4,297.4,133L297.4,133z" style="fill: rgb(5, 8, 13);"/>
	<path class="st11" d="M213.4,128.3v-13.1c0,0,0.1-4.4,4.3-4.4c4.2,0,5.2,0,5.2,0h3.3v-4.7c0,0-0.2-3.4,3.4-3.4c3.6,0,22,0,22,0h0.7&#10;&#9;&#9;v25.7H213.4z" style="fill: rgb(186, 143, 13);"/>
	<path class="st10" d="M252.4,73.3V56.2c0,0-41.9-1.2-41.9,17.1H252.4z" style="fill: rgb(251, 190, 14);"/>
	<path class="st15" d="M229.6,58.2c-9.9,2.1-19.2,6.4-19.2,15h19.2V58.2z" style="fill: rgb(6, 15, 20);"/>
	<path d="M 227.2 67.400002 A 2.7 2.7 0 0 1 224.5 70.100002 A 2.7 2.7 0 0 1 221.8 67.400002 A 2.7 2.7 0 0 1 224.5 64.700001 A 2.7 2.7 0 0 1 227.2 67.400002 Z" class="st10" style="fill: rgb(251, 190, 14);"/>
	<path d="M 225.600006 66.199997 A 0.5 0.5 0 0 1 225.100006 66.699997 A 0.5 0.5 0 0 1 224.600006 66.199997 A 0.5 0.5 0 0 1 225.100006 65.699997 A 0.5 0.5 0 0 1 225.600006 66.199997 Z" class="st19" style="fill: rgb(255, 255, 255);"/>
	<path d="M 220.399997 67.400002 A 2.7 2.7 0 0 1 217.699997 70.100002 A 2.7 2.7 0 0 1 214.999997 67.400002 A 2.7 2.7 0 0 1 217.699997 64.700001 A 2.7 2.7 0 0 1 220.399997 67.400002 Z" class="st10" style="fill: rgb(251, 190, 14);"/>
	<path d="M 218.800003 66.199997 A 0.5 0.5 0 0 1 218.300003 66.699997 A 0.5 0.5 0 0 1 217.800003 66.199997 A 0.5 0.5 0 0 1 218.300003 65.699997 A 0.5 0.5 0 0 1 218.800003 66.199997 Z" class="st19" style="fill: rgb(255, 255, 255);"/>
	<path class="st18" d="M250.4,91.3c-0.1,0.2-0.4,0.2-0.6,0.1l-19.5-16.2c-0.2-0.1-0.2-0.4-0.1-0.6l0,0c0.1-0.2,0.4-0.2,0.6-0.1&#10;&#9;&#9;l19.5,16.2C250.5,90.9,250.6,91.2,250.4,91.3L250.4,91.3z" style="fill: rgb(60, 81, 98);"/>
	<path d="M 216.5 115.800003 H 227.1 V 126.000003 H 216.5 V 115.800003 Z" class="st12" style="fill: rgb(255, 236, 84);"/>
	<path d="M 224.500003 121.400002 A 2.7 2.7 0 0 1 221.800003 124.100002 A 2.7 2.7 0 0 1 219.100003 121.400002 A 2.7 2.7 0 0 1 221.800003 118.700001 A 2.7 2.7 0 0 1 224.500003 121.400002 Z" class="st11" style="fill: rgb(186, 143, 13);"/>
	<path d="M 222.899994 120.099998 A 0.5 0.5 0 0 1 222.399994 120.599998 A 0.5 0.5 0 0 1 221.899994 120.099998 A 0.5 0.5 0 0 1 222.399994 119.599998 A 0.5 0.5 0 0 1 222.899994 120.099998 Z" class="st19" style="fill: rgb(255, 255, 255);"/>
	<path class="st20" d="M231.4,128.3v-18c0-1,0.3-1.7,0.8-2.2c0.9-0.8,2.5-0.7,2.5-0.7l17.6,0V106h-17.5c-0.3,0-2.2-0.1-3.6,1&#10;&#9;&#9;c-0.9,0.8-1.3,1.9-1.3,3.3v18H231.4z" style="fill: rgb(35, 31, 32);"/>
	<path class="st11" d="M290.6,128.3v-13.1c0,0-0.1-4.4-4.3-4.4c-4.2,0-5.2,0-5.2,0h-3.3v-4.7c0,0,0.2-3.4-3.4-3.4c-3.6,0-22,0-22,0&#10;&#9;&#9;h-0.7v25.7H290.6z" style="fill: rgb(186, 143, 13);"/>
	<path class="st10" d="M251.6,73.3V56.2c0,0,41.9-1.2,41.9,17.1H251.6z" style="fill: rgb(251, 190, 14);"/>
	<path class="st15" d="M274.4,58.2c9.9,2.1,19.2,6.4,19.2,15h-19.2V58.2z" style="fill: rgb(6, 15, 20);"/>
	<path d="M 282.1 67.400002 A 2.6 2.6 0 0 1 279.5 70.000001 A 2.6 2.6 0 0 1 276.9 67.400002 A 2.6 2.6 0 0 1 279.5 64.800002 A 2.6 2.6 0 0 1 282.1 67.400002 Z" class="st10" style="fill: rgb(251, 190, 14);"/>
	<path d="M 279.399994 66.199997 A 0.5 0.5 0 0 1 278.899994 66.699997 A 0.5 0.5 0 0 1 278.399994 66.199997 A 0.5 0.5 0 0 1 278.899994 65.699997 A 0.5 0.5 0 0 1 279.399994 66.199997 Z" class="st19" style="fill: rgb(255, 255, 255);"/>
	<path d="M 288.999988 67.400002 A 2.7 2.7 0 0 1 286.299988 70.100002 A 2.7 2.7 0 0 1 283.599988 67.400002 A 2.7 2.7 0 0 1 286.299988 64.700001 A 2.7 2.7 0 0 1 288.999988 67.400002 Z" class="st10" style="fill: rgb(251, 190, 14);"/>
	<path d="M 286.200012 66.199997 A 0.5 0.5 0 0 1 285.700012 66.699997 A 0.5 0.5 0 0 1 285.200012 66.199997 A 0.5 0.5 0 0 1 285.700012 65.699997 A 0.5 0.5 0 0 1 286.200012 66.199997 Z" class="st19" style="fill: rgb(255, 255, 255);"/>
	<path class="st18" d="M253.6,91.3c0.1,0.2,0.4,0.2,0.6,0.1l19.5-16.2c0.2-0.1,0.2-0.4,0.1-0.6l0,0c-0.1-0.2-0.4-0.2-0.6-0.1&#10;&#9;&#9;l-19.5,16.2C253.5,90.9,253.4,91.2,253.6,91.3L253.6,91.3z" style="fill: rgb(60, 81, 98);"/>
	<path d="M 276.899994 115.800003 H 287.499994 V 126.000003 H 276.899994 V 115.800003 Z" class="st12" style="fill: rgb(255, 236, 84);"/>
	<path d="M 284.800012 121.400002 A 2.6 2.6 0 0 1 282.200012 124.000001 A 2.6 2.6 0 0 1 279.600012 121.400002 A 2.6 2.6 0 0 1 282.200012 118.800002 A 2.6 2.6 0 0 1 284.800012 121.400002 Z" class="st11" style="fill: rgb(186, 143, 13);"/>
	<path d="M 282.100006 120.099998 A 0.5 0.5 0 0 1 281.600006 120.599998 A 0.5 0.5 0 0 1 281.100006 120.099998 A 0.5 0.5 0 0 1 281.600006 119.599998 A 0.5 0.5 0 0 1 282.100006 120.099998 Z" class="st19" style="fill: rgb(255, 255, 255);"/>
	<path class="st20" d="M272.6,128.3v-18c0-1-0.3-1.7-0.8-2.2c-0.9-0.8-2.5-0.7-2.5-0.7l-17.6,0V106h17.5c0.3,0,2.2-0.1,3.6,1&#10;&#9;&#9;c0.9,0.8,1.3,1.9,1.3,3.3v18H272.6z" style="fill: rgb(35, 31, 32);"/>
	<path d="M 232.899994 109.5 H 271.699993 V 111.1 H 232.899994 V 109.5 Z" class="st20" style="fill: rgb(35, 31, 32);"/>
	<path d="M 232.899994 114.699997 H 271.699993 V 116.299997 H 232.899994 V 114.699997 Z" class="st20" style="fill: rgb(35, 31, 32);"/>
	<path d="M 232.899994 118.800003 H 271.699993 V 120.400003 H 232.899994 V 118.800003 Z" class="st20" style="fill: rgb(35, 31, 32);"/>
	<path d="M 232.899994 124 H 271.699993 V 125.6 H 232.899994 V 124 Z" class="st20" style="fill: rgb(35, 31, 32);"/>
	<path class="st3" d="M271.7,66.7c0,2.3-1.9,4.2-4.2,4.2h-30.4c-2.3,0-4.2-1.9-4.2-4.2l0,0c0-2.3,1.9-4.2,4.2-4.2h30.4&#10;&#9;&#9;C269.8,62.6,271.7,64.4,271.7,66.7L271.7,66.7z" style="fill: rgb(5, 8, 13);"/>
	<path d="M 248.800006 59.200001 A 1.2 1.2 0 0 1 247.600006 60.400001 A 1.2 1.2 0 0 1 246.400006 59.200001 A 1.2 1.2 0 0 1 247.600006 58.000001 A 1.2 1.2 0 0 1 248.800006 59.200001 Z" class="st11" style="fill: rgb(186, 143, 13);"/>
	<path d="M 257.900012 59.200001 A 1.2 1.2 0 0 1 256.700012 60.400001 A 1.2 1.2 0 0 1 255.500012 59.200001 A 1.2 1.2 0 0 1 256.700012 58.000001 A 1.2 1.2 0 0 1 257.900012 59.200001 Z" class="st11" style="fill: rgb(186, 143, 13);"/>
	<path d="M 253.500003 59.200001 A 1.2 1.2 0 0 1 252.300003 60.400001 A 1.2 1.2 0 0 1 251.100003 59.200001 A 1.2 1.2 0 0 1 252.300003 58.000001 A 1.2 1.2 0 0 1 253.500003 59.200001 Z" class="st11" style="fill: rgb(186, 143, 13);"/>
	<path d="M 258.1000061035156 96.80000305175781 L 241.39999389648438 96.80000305175781 L 235.5 100.0999984741211 L 235.5 101.30000305175781 L 258.1000061035156 101.30000305175781 Z" class="st10" style="fill: rgb(251, 190, 14);"/>
	<path d="M 244.3000030517578 96.80000305175781 L 260.8999938964844 96.80000305175781 L 266.8999938964844 100.0999984741211 L 266.8999938964844 101.30000305175781 L 244.3000030517578 101.30000305175781 Z" class="st10" style="fill: rgb(251, 190, 14);"/>
</g></g><path d="M 8.44753360748291 60.52309036254883 L 11.969529151916504 66.37496948242188 L 10.333060264587402 67.3598861694336 L 1.865831971168518 53.29139709472656 L 5.721386909484863 50.97090148925781 C 7.446390628814697 49.93269348144531 8.919543266296387 49.49736404418945 10.14084243774414 49.66490936279297 C 11.364416122436523 49.823307037353516 12.376703262329102 50.56794357299805 13.177703857421875 51.89882278442383 C 14.298417091369629 53.76091384887695 14.11225700378418 55.58477020263672 12.61922550201416 57.37039566040039 L 20.237552642822266 61.3987922668457 L 18.30977439880371 62.55904006958008 L 11.377755165100098 58.75951385498047 L 8.44753360748291 60.52309036254883 M 7.601841926574707 59.11795425415039 L 9.838064193725586 57.77206802368164 C 10.991874694824219 57.07763671875 11.702585220336914 56.338653564453125 11.970197677612305 55.55510711669922 C 12.232097625732422 54.77500534057617 12.08630657196045 53.925140380859375 11.532825469970703 53.00551986694336 C 10.972469329833984 52.0744743347168 10.294358253479004 51.568336486816406 9.498493194580078 51.48710250854492 C 8.702629089355469 51.40586853027344 7.699231147766113 51.72965621948242 6.4883012771606445 52.45846176147461 L 4.363462448120117 53.73731231689453 L 7.601841926574707 59.11795425415039 ZM 24.17308807373047 59.70316696166992 L 22.49472427368164 60.504852294921875 L 17.18895721435547 49.39697265625 L 18.867321014404297 48.59529113769531 L 24.17308807373047 59.70316696166992 M 15.609310150146484 46.461124420166016 C 15.425411224365234 46.07612228393555 15.383604049682617 45.74885177612305 15.483885765075684 45.479305267333984 C 15.59018325805664 45.206886291503906 15.784700393676758 45.00315475463867 16.06743621826172 44.86810302734375 C 16.338138580322266 44.738800048828125 16.612842559814453 44.718406677246094 16.891544342041016 44.80692672729492 C 17.17913818359375 44.898590087890625 17.4134464263916 45.1339111328125 17.594470977783203 45.51289749145508 C 17.77262306213379 45.885868072509766 17.806978225708008 46.21300506591797 17.697538375854492 46.49431228637695 C 17.594114303588867 46.77274703979492 17.40705108642578 46.97661590576172 17.1363468170166 47.105918884277344 C 16.85361099243164 47.240970611572266 16.571455001831055 47.261226654052734 16.289878845214844 47.16669464111328 C 16.014318466186523 47.06928253173828 15.78746223449707 46.8340950012207 15.609310150146484 46.461124420166016 ZM 35.08852767944336 53.5108642578125 L 34.994747161865234 53.54557800292969 C 34.621002197265625 55.01326370239258 33.630741119384766 56.044490814208984 32.023956298828125 56.63926696777344 C 30.5172061920166 57.197017669677734 29.15088653564453 57.116310119628906 27.924997329711914 56.39714813232422 C 26.705358505249023 55.6756706237793 25.743764877319336 54.364620208740234 25.04021644592285 52.4639892578125 C 24.336668014526367 50.563358306884766 24.211349487304688 48.92852783203125 24.664262771606445 47.55949401855469 C 25.119489669799805 46.19671630859375 26.09735107421875 45.23760986328125 27.597850799560547 44.68217468261719 C 29.16086769104004 44.103599548339844 30.571868896484375 44.22819137573242 31.83085060119629 45.05595397949219 L 31.971521377563477 45.00387954711914 L 31.58753776550293 44.196998596191406 L 31.238630294799805 43.398460388183594 L 29.502901077270508 38.709407806396484 L 31.256608963012695 38.060245513916016 L 37.32124328613281 54.44380569458008 L 35.89577102661133 54.971466064453125 L 35.08852767944336 53.5108642578125 M 31.70748519897461 55.09296798706055 C 32.90163040161133 54.650936126708984 33.644073486328125 54.00645446777344 33.934810638427734 53.159523010253906 C 34.23411560058594 52.3165283203125 34.11531066894531 51.16979217529297 33.578392028808594 49.71931076049805 L 33.4430046081543 49.35356140136719 C 32.8366584777832 47.715518951416016 32.13307571411133 46.65018081665039 31.332256317138672 46.15754318237305 C 30.529123306274414 45.65865707397461 29.53048324584961 45.630226135253906 28.33633804321289 46.072261810302734 C 27.310997009277344 46.451805114746094 26.673320770263672 47.139259338378906 26.423307418823242 48.13461685180664 C 26.175607681274414 49.136226654052734 26.32021713256836 50.36227035522461 26.857135772705078 51.81275177001953 C 27.403310775756836 53.28824234008789 28.087223052978516 54.30044174194336 28.90886878967285 54.84934616088867 C 29.72426414489746 55.40056228637695 30.657136917114258 55.48176956176758 31.70748519897461 55.09296798706055 ZM 46.219444274902344 52.318660736083984 C 44.450660705566406 52.747371673583984 42.92407989501953 52.54802322387695 41.63970184326172 51.720619201660156 C 40.35532760620117 50.893211364746094 39.481510162353516 49.523841857910156 39.01824951171875 47.612518310546875 C 38.55027770996094 45.68175506591797 38.65509796142578 44.03403091430664 39.332706451416016 42.669349670410156 C 40.00383377075195 41.306236267089844 41.139564514160156 40.43074035644531 42.73989486694336 40.0428581237793 C 44.243038177490234 39.678531646728516 45.548057556152344 39.88356018066406 46.65494918823242 40.65795135498047 C 47.7683219909668 41.43077087402344 48.5205192565918 42.62382507324219 48.91154098510742 44.23711013793945 L 49.18949890136719 45.383907318115234 L 40.9481201171875 47.38142395019531 C 41.327762603759766 48.777957916259766 41.942440032958984 49.75739669799805 42.792144775390625 50.319732666015625 C 43.6434211730957 50.8885498046875 44.67809295654297 51.02534103393555 45.896156311035156 50.7301139831543 C 47.18549346923828 50.417606353759766 48.39345932006836 49.84014892578125 49.520057678222656 48.99773406982422 L 49.91107940673828 50.61102294921875 C 49.34208679199219 51.03704071044922 48.7841911315918 51.3814811706543 48.23739242553711 51.644344329833984 C 47.695499420166016 51.89916229248047 47.022850036621094 52.123931884765625 46.219444274902344 52.318660736083984 M 43.08792495727539 41.56367111206055 C 42.12902069091797 41.796085357666016 41.43986892700195 42.29238510131836 41.02046585083008 43.05257034301758 C 40.60263442993164 43.81923294067383 40.47615432739258 44.76908874511719 40.641021728515625 45.90213394165039 L 46.89008712768555 44.387508392333984 C 46.61212921142578 43.24071502685547 46.14744567871094 42.427284240722656 45.49603271484375 41.94721984863281 C 44.83657455444336 41.46224594116211 44.033870697021484 41.33439636230469 43.08792495727539 41.56367111206055 ZM 65.03653717041016 49.20811462402344 L 63.132877349853516 49.36365509033203 L 61.93415832519531 34.692543029785156 L 56.75143051147461 35.116004943847656 L 56.61299133300781 33.42164993286133 L 68.8821029663086 32.419189453125 L 69.02054595947266 34.11354446411133 L 63.83781433105469 34.53700256347656 L 65.03653717041016 49.20811462402344 ZM 80.91960144042969 49.01791763305664 L 81.1421890258789 41.061031341552734 C 81.17034149169922 40.05475997924805 80.9614028930664 39.29861831665039 80.515380859375 38.7926139831543 C 80.07601928710938 38.286800384521484 79.36986541748047 38.02027893066406 78.39691162109375 37.99306106567383 C 77.10408782958984 37.95689392089844 76.14790344238281 38.28361892700195 75.52838134765625 38.973228454589844 C 74.91570281982422 39.65636444091797 74.58699798583984 40.7976188659668 74.54225158691406 42.39699172973633 L 74.36216735839844 48.83447265625 L 72.50289154052734 48.78246307373047 L 72.99142456054688 31.319293975830078 L 74.85069274902344 31.371307373046875 L 74.70304870605469 36.64924240112305 C 74.68515014648438 37.28899002075195 74.64034271240234 37.81794357299805 74.56861877441406 38.23610305786133 L 74.67857360839844 38.23917770385742 C 75.06169128417969 37.65633010864258 75.59786987304688 37.20448303222656 76.287109375 36.883628845214844 C 76.97634887695312 36.56277847290039 77.75413513183594 36.41447067260742 78.62046813964844 36.43870544433594 C 80.12654113769531 36.480838775634766 81.24612426757812 36.86896514892578 81.97921752929688 37.603084564208984 C 82.70564270019531 38.33702087402344 83.04705047607422 39.483680725097656 83.00342559814453 41.04307174682617 L 82.77886962890625 49.06993103027344 L 80.91960144042969 49.01791763305664 ZM 91.7530746459961 50.3642463684082 C 89.95045471191406 50.113346099853516 88.6037826538086 49.36724090576172 87.71307373046875 48.12593460083008 C 86.82235717773438 46.88462448120117 86.51255798339844 45.29002380371094 86.78367614746094 43.34213638305664 C 87.05754852294922 41.37443542480469 87.76022338867188 39.88037109375 88.8917007446289 38.85994338989258 C 90.01657104492188 37.83859634399414 91.39447784423828 37.44142532348633 93.02542877197266 37.66843032836914 C 94.55732727050781 37.881649017333984 95.69583129882812 38.55166244506836 96.4409408569336 39.678470611572266 C 97.1926498413086 40.80620193481445 97.45408630371094 42.192138671875 97.2252426147461 43.8362922668457 L 97.06257629394531 45.00502395629883 L 88.66353607177734 43.836002349853516 C 88.50372314453125 45.27437210083008 88.71570587158203 46.41111373901367 89.29949188232422 47.24623107910156 C 89.88235473632812 48.08795166015625 90.79446411132812 48.5952033996582 92.03583526611328 48.767982482910156 C 93.3498306274414 48.95087432861328 94.68546295166016 48.85744094848633 96.04273223876953 48.4876823425293 L 95.81388854980469 50.1318359375 C 95.12818908691406 50.319095611572266 94.48278045654297 50.43455505371094 93.87764739990234 50.47821807861328 C 93.28004455566406 50.516197204589844 92.57185363769531 50.478206634521484 91.7530746459961 50.3642463684082 M 92.79055786132812 39.210777282714844 C 91.81331634521484 39.07476043701172 90.99004364013672 39.28325653076172 90.32074737548828 39.83626937866211 C 89.6505355834961 40.3958854675293 89.18402862548828 41.23290252685547 88.92122650146484 42.347312927246094 L 95.28983306884766 43.23373031616211 C 95.45250701904297 42.06499481201172 95.31905364990234 41.13774490356445 94.88949584960938 40.45198059082031 C 94.4542465209961 39.75869369506836 93.75460052490234 39.3449592590332 92.79055786132812 39.210777282714844 ZM 110.48918151855469 37.199195861816406 L 114.913330078125 38.597957611083984 C 116.98555755615234 39.25312042236328 118.38722229003906 40.038883209228516 119.11832427978516 40.95524215698242 C 119.84942626953125 41.87160110473633 120.0029525756836 43.00039291381836 119.57890319824219 44.34162139892578 C 119.28548431396484 45.269676208496094 118.78588104248047 45.95424270629883 118.080078125 46.395328521728516 C 117.37628173828125 46.830055236816406 116.49626159667969 46.98182678222656 115.44000244140625 46.850643157958984 L 115.40684509277344 46.95552444458008 C 117.65556335449219 48.113975524902344 118.44932556152344 49.73884963989258 117.78813171386719 51.83014678955078 C 117.34599304199219 53.22858428955078 116.53094482421875 54.170013427734375 115.34298706054688 54.65442657470703 C 114.14665985107422 55.143192291259766 112.69671630859375 55.11827087402344 110.99317169189453 54.57966995239258 L 105.53926086425781 52.85533905029297 L 110.48918151855469 37.199195861816406 M 110.19108581542969 44.477943420410156 L 113.18501281738281 45.42451477050781 C 114.46903228759766 45.83047866821289 115.45721435546875 45.92266082763672 116.1495590209961 45.7010612487793 C 116.84391021728516 45.47311019897461 117.3418197631836 44.88239288330078 117.64327239990234 43.92891311645508 C 117.92061614990234 43.05171203613281 117.80693817138672 42.31657791137695 117.30223846435547 41.7235107421875 C 116.79553985595703 41.136802673339844 115.85568237304688 40.62639617919922 114.482666015625 40.192298889160156 L 111.81292724609375 39.34822082519531 L 110.19108581542969 44.477943420410156 M 109.70272827148438 46.022579193115234 L 107.8517837524414 51.87694549560547 L 111.11268615722656 52.907928466796875 C 112.37763977050781 53.307861328125 113.40531158447266 53.36358642578125 114.19570922851562 53.075103759765625 C 114.99246978759766 52.788631439208984 115.55564880371094 52.12416076660156 115.88523864746094 51.081687927246094 C 116.19071197509766 50.11549758911133 116.08843994140625 49.30006408691406 115.57841491699219 48.63539505004883 C 115.06838989257812 47.97072219848633 114.14594268798828 47.4273681640625 112.81107330322266 47.00532913208008 L 109.70272827148438 46.022579193115234 ZM 126.31114196777344 47.15960693359375 L 122.92749786376953 54.39777374267578 C 122.50401306152344 55.30367660522461 122.39315032958984 56.07607650756836 122.59490966796875 56.7149658203125 C 122.80270385742188 57.35668182373047 123.34747314453125 57.883636474609375 124.22921752929688 58.29582595825195 C 125.39481353759766 58.8407096862793 126.39458465576172 58.92171859741211 127.22852325439453 58.538856506347656 C 128.0713348388672 58.152774810791016 128.83010864257812 57.238033294677734 129.50486755371094 55.79462432861328 L 132.24481201171875 49.93342971801758 L 133.92979431152344 50.72111129760742 L 128.71669006347656 61.87278366088867 L 127.32160186767578 61.22061538696289 L 127.7757568359375 59.611534118652344 L 127.68516540527344 59.56918716430664 C 127.0840072631836 59.95784378051758 126.40766143798828 60.15312957763672 125.65613555908203 60.155052185058594 C 124.91064453125 60.159793853759766 124.14231872558594 59.97724151611328 123.35116577148438 59.607398986816406 C 121.99835205078125 58.97499465942383 121.13336944580078 58.180606842041016 120.7562255859375 57.22423553466797 C 120.38190460205078 56.26182174682617 120.52647399902344 55.07099151611328 121.18993377685547 53.65174102783203 L 124.59898376464844 46.35921859741211 L 126.31114196777344 47.15960693359375 ZM 140.71713256835938 65.2195053100586 C 140.10986328125 66.1921615600586 139.28013610839844 66.71548461914062 138.2279510498047 66.78948211669922 C 137.17575073242188 66.86347198486328 135.99368286132812 66.49091339111328 134.6817169189453 65.67179870605469 C 133.29624938964844 64.80679321289062 132.35206604003906 63.91472244262695 131.8491973876953 62.99559020996094 L 132.76539611816406 61.52811813354492 C 133.1098175048828 62.09682083129883 133.5245361328125 62.63474655151367 134.00953674316406 63.141902923583984 C 134.48890686035156 63.645530700683594 134.9971923828125 64.06504821777344 135.534423828125 64.40045928955078 C 136.36004638671875 64.91593170166016 137.0763702392578 65.17847442626953 137.68341064453125 65.18807983398438 C 138.2960968017578 65.20121765136719 138.7701416015625 64.93917083740234 139.1055450439453 64.40194702148438 C 139.35975646972656 63.99478530883789 139.40158081054688 63.53755569458008 139.23104858398438 63.030250549316406 C 139.05484008789062 62.519412994384766 138.5785369873047 61.74654769897461 137.8021240234375 60.71165084838867 C 137.0610809326172 59.74599075317383 136.5688934326172 58.998573303222656 136.32554626464844 58.46939468383789 C 136.08432006835938 57.949405670166016 135.9696044921875 57.4533805847168 135.9813995361328 56.981319427490234 C 135.99884033203125 56.512794494628906 136.15585327148438 56.041019439697266 136.45242309570312 55.566001892089844 C 136.98202514648438 54.717750549316406 137.745361328125 54.263004302978516 138.742431640625 54.201759338378906 C 139.7451629638672 54.14404296875 140.84878540039062 54.4911994934082 142.0532989501953 55.243228912353516 C 143.17864990234375 55.94582748413086 144.13555908203125 56.86156463623047 144.9240264892578 57.990440368652344 L 143.56448364257812 58.9217643737793 C 142.78099060058594 57.83528518676758 141.96511840820312 57.027244567871094 141.1168670654297 56.49764633178711 C 140.36474609375 56.028072357177734 139.72686767578125 55.79093551635742 139.20323181152344 55.78623580932617 C 138.67039489746094 55.78366470336914 138.27511596679688 55.98878479003906 138.0173797607422 56.40159606933594 C 137.84437561035156 56.67869186401367 137.7696075439453 56.962100982666016 137.79306030273438 57.25182342529297 C 137.8108673095703 57.53801345825195 137.9233856201172 57.867618560791016 138.130615234375 58.240638732910156 C 138.3343048095703 58.61931610107422 138.78440856933594 59.25792694091797 139.48089599609375 60.15647506713867 C 140.4368896484375 61.38208770751953 140.98960876464844 62.3598518371582 141.13906860351562 63.08976364135742 C 141.28851318359375 63.819679260253906 141.1478729248047 64.52959442138672 140.71713256835938 65.2195053100586 Z" transform="matrix(1, 0, 0, 1, 1.4761121273040771, 17.70383644104004)" style="fill: rgb(255, 255, 255); white-space: pre; color: rgb(51, 51, 51); stroke-opacity: 0.25; stroke: rgb(255, 226, 3); stroke-width: 16; paint-order: stroke;"/><path d="M 40.709320068359375 55.17101287841797" style="fill: rgb(255, 255, 255); fill-opacity: 0; stroke: rgb(0, 0, 0); stroke-opacity: 1; stroke-width: 0; paint-order: fill;"/></svg>